<?xml version="1.0" encoding="UTF-8"?>
<!-- Created with Inkscape (http://www.inkscape.org/) -->
<svg id="decepticon-ranks" width="620" height="700" version="1.1" viewBox="0 0 620 700" xmlns="http://www.w3.org/2000/svg">
 <g id="division-air-force" class="division" display="none">
  <path d="m296.26 471.17-12.236-6.6704-0.0276-14.294-19.065-4.5302-11.733 4.6622c-6.4534 2.5642-12.064 4.6622-12.467 4.6622h-0.73399v-19.907l-2.25-1.5861c-1.2375-0.87237-6.525-4.5671-11.75-8.2104l-9.5-6.6243-19.35-19.381-13.15-1.3473v0.96852c0 1.8921 12.328 16.254 19.855 23.132 4.2045 3.8416 11.92 10.052 17.145 13.8l9.5 6.8152 0.29879 6.2111 0.29878 6.2111-7.7988-4.8567c-4.2893-2.6712-8.8113-5.498-10.049-6.2817l-2.25-1.425v-7.0342l-8.0705-6.8597c-17.933-15.243-35.799-40.999-43.418-62.593-1.6263-4.6093-1.2926-4.8059 3.3514-1.9747 1.8495 1.1276 3.4898 1.9134 3.6449 1.7463 0.15517-0.16714 0.94815-1.9117 1.7622-3.8768l1.48-3.5729-20.562-10.927c-11.309-6.0099-21.828-11.98-23.375-13.266l-2.8125-2.3389-0.0136-2.1611c-8e-3 -1.1886-0.269-3.1124-0.58109-4.2752l-0.56744-2.1141-24.155-13.566 1.9088-1.3978c1.0498-0.76877 5.0878-3.1433 8.9733-5.2767 3.8855-2.1334 7.6185-4.5465 8.2956-5.3624 0.67711-0.81586 1.6224-3.8875 2.1008-6.8259l0.86965-5.3426-1.1653-1.1655c-0.64096-0.64105-13.99-6.8445-29.665-13.786l-28.5-12.62-5-4.9685-1-14.276-54.469-24.359 13.235-10.535c13.805-10.989 19.331-14.78 21.552-14.787l1.3174-4e-3 -1.1944 3.7632 1.2798 0.47638c0.70389 0.262 16.214 3.0808 34.466 6.2641l33.187 5.7877 12.293-4.5972 0.91074-2.3954 0.91075-2.3954 3.4742-1.4516c4.3675-1.8248 4.3353-1.8277 4.7189 0.42373l0.31955 1.8754 4.5-1.6863v-1.9098c0-2.328 1.2587-3.3563 6.6868-5.463l4.1868-1.6249 0.6264 4.662 31.34-11.864c17.237-6.5251 32.244-11.864 33.35-11.864h2.0107l10.15 5.682c5.5823 3.1251 11.408 6.4404 12.946 7.3674l2.7966 1.6855-7.7437 4.8264c-4.259 2.6546-11.721 8.1637-16.583 12.242l-8.839 7.4161-13.428 15.895-15.5 8.7867c-28.703 16.272-35.793 20.099-37.234 20.099-0.78889 0-17.822-5.867-37.85-13.038l-36.416-13.038-5.9836 0.57563-0.59178 3.13 36.288 12.825c19.958 7.0539 39.034 13.842 42.392 15.085l6.1038 2.2599 14.396-8.3832c7.9179-4.6108 14.734-8.3909 15.146-8.4002l0.75-0.0169v20.539l-11.75 6.3814c-6.4625 3.5098-11.898 6.4994-12.08 6.6435s-1.2878 3.7887-2.4586 8.0989l-2.1287 7.8367-0.0828 38.443 2 1.9285c1.1 1.0607 8.3 5.3257 16 9.4778l14 7.5493 0.63993-0.69947c0.35197-0.38472 2.0138-3.8664 3.6929-7.737l3.053-7.0375-1.9764-20.925 1.0182-10.154c0.56002-5.585 1.2951-11.886 1.6336-14.003l0.61539-3.8484-4.434-5.6368-0.82287 0.82288c-0.45258 0.45258-1.5408 4.8722-2.4183 9.8213l-1.5954 8.9984-0.14082 11.75c-0.0774 6.4625-0.3938 11.744-0.70301 11.736-0.3092-8e-3 -5.1661-2.6248-10.793-5.816l-10.231-5.8022 7.0163-3.3943c3.859-1.8669 7.6305-4.0872 8.3812-4.934l1.3649-1.5397 1.1298-7.5c1.2856-8.5344 5.068-22.985 8.0513-30.761l2.0185-5.2607v-18.621l16.5-9.3225 5.9091-6.7677c10.965-12.558 24.743-23.726 39.196-31.769l5.105-2.8412 13.41 7.3713 8.9967-3.0142c4.9482-1.6578 9.4211-3.0142 9.9398-3.0142h0.9431v5.875c0 3.2312-0.26517 7.2008-0.58926 8.8213l-0.58926 2.9463-19.176 7.5637-8.7783 5.43c-4.8281 2.9865-11.273 7.7103-14.323 10.497l-5.5443 5.0672v32.393l-27.975 15.906-0.974 3.5c-0.53569 1.925-1.4956 6.875-2.1332 11l-1.1592 7.5 0.99066 24 2.089 8.0244c10.217 39.245 38.735 69.019 77.742 81.163l8.9196 2.7771 45-8e-3 10-3.3492c24.807-8.3084 44.631-22.612 58.423-42.154 6.9333-9.8238 11.399-18.799 15.819-31.793l3.6262-10.66 0.85348-34.258-1.2004-7.1169-1.2004-7.1169-2.6604-1.8229c-1.4632-1.0031-7.9479-4.8653-14.41-8.5831l-11.75-6.7597v-32.589l-4.2932-3.9574c-9.2018-8.4819-25.692-18.263-36.707-21.771l-5.5-1.7519-2.5-3.1568v-15.618h0.74753c0.41114 0 4.9063 1.3855 9.9893 3.0789l9.2418 3.0789 5.8915-3.5789c3.2403-1.9684 6.4345-3.5789 7.0982-3.5789 1.8454 0 13.348 6.661 20.31 11.762 9.3301 6.8352 19.733 16.395 25.039 23.011l4.7283 5.8952 16.954 9.5163v18.005l3.4463 10.155c1.8955 5.5855 4.215 14.205 5.1545 19.155 0.93953 4.95 2.1054 10.685 2.5908 12.744l0.88252 3.7445 15.042 8.2558-10.59 5.8776c-5.8245 3.2327-10.688 5.8774-10.808 5.8771-0.12012-2.5e-4 -0.28504-5.1801-0.36649-11.511l-0.14811-11.51-1.7547-9.9893c-0.96507-5.4941-2.0662-9.9893-2.4469-9.9893s-1.5162 0.91042-2.5232 2.0232l-1.8309 2.0232-2e-3 3.2268c-9.5e-4 1.7748 0.51013 7.9938 1.1357 13.82l1.1374 10.593-0.91926 11.31-0.91925 11.31 3.3944 7.3468c1.8669 4.0407 3.72 7.3468 4.1179 7.3468 0.39791 0 7.2006-3.4484 15.117-7.6632l14.394-7.6632 1.1979-2.0868 1.1981-2.0868-0.0502-35-1.2609-5.5c-0.6935-3.025-1.6867-7.075-2.2071-9l-0.94618-3.5-24.026-13-0.01-20.714 1.5726 0.60348c0.86495 0.33191 7.5682 4.1495 14.896 8.4835l13.323 7.88 85.208-30.18v-1.1798c0-1.3335-2.2395-2.3937-5.0561-2.3937-1.0409 0-18.217 5.8496-38.168 12.999s-36.908 13-37.681 13c-1.24 8e-4 -31.936-16.676-47.033-25.553l-5.5615-3.27-5.804-6.8381c-7.939-9.3535-21.034-20.878-31.692-27.891l-8.8813-5.8439 2.6886-1.6191c1.4787-0.89048 7.2173-4.1763 12.752-7.3018l10.064-5.6827h2.0844c1.1464 0 16.193 5.3444 33.436 11.876l31.352 11.876 1-4.7243 10.5 4.8794v3.878l1.5818 0.60699c2.5023 0.96023 3.4182 0.72095 3.4182-0.89301 0-1.9236 1.1137-1.8903 5.4178 0.16218l3.4856 1.6622 0.2983 2.0432 0.2983 2.0432 12.314 4.6933 34.215-6.0077c18.818-3.3042 34.449-6.2418 34.735-6.5279 0.28609-0.28609-0.0581-1.2169-0.76483-2.0685-1.8763-2.2608-0.6836-2.7847 2.9574-1.299 3.1274 1.2761 31.91 23.696 31.998 24.924 0.0246 0.34373-11.993 5.9857-26.705 12.538l-26.75 11.913-1.1263 14.398-4.4848 4.7739-60.107 26.552 1.293 10.201 3.4749 4.7777 8.1448 4.6111c4.4796 2.5361 8.4312 4.8989 8.7812 5.2506l0.63637 0.63945-25.112 13.658v2.8311c0 1.5571-0.63016 4.0497-1.4004 5.5391l-1.4004 2.708-43.162 22.985-0.0188 2.0589c-0.0104 1.1324 0.62276 2.9324 1.4069 4l1.4258 1.9411 2.9785-1.75c1.6382-0.9625 3.2428-1.75 3.5657-1.75s-0.4716 2.8125-1.7656 6.25c-8.0715 21.442-24.988 45.44-42.56 60.375l-8.0706 6.8597v7.0874l-18.5 11.529-0.30816-5.8007-0.30815-5.8006 2.455-2c1.3503-1.1 5.725-4.25 9.7216-7s10.737-8.2569 14.98-12.238c8.2048-7.6991 18.96-20.24 18.96-22.108v-1.1234l-12.5 1.2126-5.2768 5.8188c-6.359 7.0121-17.809 16.374-28.863 23.6l-8.1396 5.3205-0.61043 1.5908c-0.33574 0.87492-0.61043 5.6521-0.61043 10.616v9.0252l-1.25-0.49745c-0.6875-0.27359-5.8715-2.3467-11.52-4.607-5.6486-2.2602-11.049-4.1126-12-4.1165-0.95144-4e-3 -5.8744 0.94751-10.94 2.114l-9.21 2.1209-0.29001 7.601-0.29001 7.601-11 6.2225c-6.05 3.4224-11.45 6.2148-12 6.2054-0.55-9e-3 -6.5063-3.0187-13.236-6.6875z"/>
 </g>
 <g id="division-ground-force" class="division">
  <path d="m296.98 471.43-12.206-6.8833-0.30247-7.1467-0.30247-7.1467-7.2965-1.8411c-4.0131-1.0126-8.7434-1.8516-10.512-1.8646l-3.2153-0.0235-10.247 4.1194c-5.636 2.2657-10.639 4.1194-11.117 4.1194h-0.86998l-0.016-9.5262c-8e-3 -5.2394-0.36057-10.007-0.78177-10.596-0.42119-0.58823-3.8147-3.085-7.5412-5.5484-10.228-6.7614-20.305-15.127-27.455-22.793l-6.422-6.8856-13.03-1.3953v1.1924c0 4.1994 22.578 26.842 36.483 36.587l8.8601 6.2097 0.3126 5.8627 0.31262 5.8626h-0.8923c-0.49075 0-4.6185-2.433-9.1727-5.4068l-8.2804-5.4068-0.59641-3.7326-0.59641-3.7326-4.0942-3.4746c-10.529-8.9358-16.958-15.633-24.434-25.456l-8.1055-10.649-5.7598-10.978c-5.6533-10.775-10.401-21.832-9.6805-22.544 0.20079-0.19838 2.0105 0.59848 4.0216 1.7708l3.6565 2.1315 0.66887-1.7221c0.36787-0.94718 0.54055-1.8165 0.38373-1.9319-0.15682-0.11536-2.7477-1.513-5.7575-3.1058l-5.4724-2.8961v-1.2851c0-0.70681 1.4072-4.3839 3.1271-8.1712 1.7199-3.7874 3.1271-7.2723 3.1271-7.7444 0-0.47204-2.5831-2.3184-5.7401-4.1031l-5.7401-3.2448-3.5934 2.1942-3.5934 2.1942-16.773-9.5588v-8.8221l-15.114-8.7176-8.1378 4.3339-15.836-9.0282-0.56423-4.7124c-0.66123-5.5226 0.01312-4.7267-7.5489-8.9092l-6.0284-3.3343-2.8568-5.4581 1.1272-13.874h33.07v-0.86619c0-0.4764-2.3138-2.1104-5.1418-3.6312l-5.1418-2.765-5.5364-6.5008 0.61353-3.0309c0.33744-1.667 0.61353-4.8267 0.61353-7.0216v-3.9907h24.761l2.238-2.6643 5.8349-55.486 15.602-10.62 0.68796-3.462c0.37838-1.9041 1.0065-6.5624 1.3959-10.352l0.70795-6.8898 4.5381-0.63843 1.4367-14.105 1.4367-14.105 5.4655-0.62624 6.4318-18.375 0.55305 0.94869c0.30418 0.52177 1.8272 4.772 3.3845 9.445l2.8314 8.4964h4.9461l0.55796 3.347c0.57178 3.4299 2.6636 22.55 2.6636 24.347v0.99882l4.6906 0.65819 0.89905 10.627 0.89905 10.627-1.4467 17.159-6.4298 7.3917c-3.5364 4.0654-9.3491 11.411-12.917 16.323l-6.4871 8.9314-11.842 23.172h-48.844l0.42977 1.2873c0.23637 0.70803 1.5654 1.8598 2.9534 2.5595l2.5236 1.2722 46.224 0.0304 5.1495-10.651c6.7064-13.871 14.409-25.675 24.555-37.631l8.1994-9.6621 2.3452-15.334c1.2898-8.4336 2.6386-15.624 2.9973-15.978 0.35867-0.35437 5.2348-1.0562 10.836-1.5597l10.184-0.91542 9.9024 0.58682c5.4463 0.32275 11.661 0.84348 13.811 1.1572l3.9088 0.57034 0.016 3.2565c8e-3 1.7911 0.4254 3.8952 0.92582 4.6758l0.90986 1.4193 1.0363-0.63281 1.0363-0.6328 0.76226-23.589 0.76225-23.589 4.9173-2.2136 0.50082-2.3522c0.27547-1.2937 0.80469-8.261 1.1761-15.483l0.67526-13.131h3.7164l0.62851-2.3172c0.34569-1.2745 0.63493-6.1093 0.64276-10.744l0.0142-8.427 1.9379-0.60768c1.0658-0.33423 2.6453-0.33946 3.51-0.0116l1.5721 0.59604 0.6504 5.349c0.35771 2.942 0.65446 7.782 0.65944 10.756l9e-3 5.4068h4.9752l0.40402 14.535 0.40403 14.535 5.6923 4.4844 1.4118 31.368 1.4118 31.368-0.9774 21.941-18.443 6.5181-9.3847 5.8527c-5.1616 3.219-11.996 8.0916-15.188 10.828l-5.8032 4.9754 0.67258 16.137 0.67259 16.137-28.911 16.516-1.3678 5.13-1.3678 5.13-0.60324 13.622-0.60325 13.622 1.2981 8.0052c7.4345 45.846 42.728 81.728 88.9 90.382l8.3082 1.5571h24.556l8.3082-1.5571c15.942-2.9878 29.86-8.7915 43.724-18.233l7.5016-5.1083 8.1405-8.4056c9.6758-9.991 14.515-16.99 20.78-30.059l4.6514-9.7015 2.7414-10.069 2.7415-10.069-0.1802-32.956-2.8238-11.206-28.644-16.591v-33.391l-7.0359-5.5886c-3.8698-3.0738-10.029-7.4892-13.687-9.8122l-6.6514-4.2235-20.534-7.7558 7e-3 -20.597c4e-3 -11.328 0.44681-30.243 0.98387-42.033l0.97646-21.436 6.3312-5.8433 0.0115-10.143c6e-3 -5.5786 0.30221-11.881 0.65757-14.005l0.64608-3.862h3.6405l0.90986-11.071 0.90997-11.071h6.2542l0.25053 4.6344c0.1378 2.5489 0.52693 7.5309 0.86474 11.071l0.6142 6.4366h3.702l0.6645 6.9516c0.36548 3.8234 0.66783 10.115 0.67191 13.982l7e-3 7.0308 5.9857 5.914 0.99814 23.736c0.54898 13.055 1.313 24.047 1.6978 24.427l0.6996 0.69121 0.71427-0.7057c0.39284-0.38813 0.97917-2.6591 1.303-5.0467l0.58868-4.341 4.1694-0.72986c5.406-0.94633 35.246-0.94637 40.652-5e-5l4.1694 0.72981 2.2636 15.946c1.245 8.7703 2.3004 16.04 2.3453 16.154 0.0449 0.11453 2.9319 3.3586 6.4154 7.209 8.5156 9.4126 19.8 26.195 25.49 37.908 2.5623 5.2746 4.6587 10.118 4.6587 10.762v1.1723l51.154-0.61726 0.98707-1.5448c0.54289-0.84963 0.99425-1.8924 1.003-2.3172l0.0161-0.7724-49.512-2e-3 -3.5824-7.8722c-6.0606-13.318-18.537-31.57-29.815-43.619l-3.3741-3.6045-0.92309-7.724-0.92311-7.724 0.95736-11.604 0.95737-11.604 2.3501-0.58278 2.3502-0.58277 0.58314-4.2914c0.32073-2.3603 0.86576-7.5354 1.2112-11.5 0.34541-3.965 0.87128-8.4835 1.1686-10.041l0.54056-2.8321h4.9772l2.901-9.2532c1.5955-5.0893 3.1409-9.2602 3.4341-9.2688 0.29321-9e-3 1.9349 4.0261 3.6483 8.9658l3.1151 8.9812 5.2118 1.1788 1.3262 12.829c0.72944 7.0558 1.5356 13.408 1.7914 14.116l0.46517 1.2873h4.0233l0.68162 7.4665c0.37489 4.1066 0.93162 8.7535 1.2372 10.327l0.55558 2.8601 15.429 10.286 0.50946 2.2954c0.2802 1.2624 1.6572 13.79 3.0601 27.84l2.5506 25.544 2.5026 2.9792h24.761v16.295l-3.2663 2.7154c-1.7964 1.4935-5.0799 3.6296-7.2965 4.7469-2.2166 1.1173-4.0302 2.4854-4.0302 3.0404v1.0089h32.313v17.36l-1.5963 1.5771c-0.87794 0.86741-3.9264 2.8701-6.7743 4.4505l-5.178 2.8734-4e-3 4.6344-4e-3 4.6344-17.449 9.8683-7.586-4.4222-15.509 8.767-0.3113 4.6195-0.31129 4.6195-16.09 9.2307-7.5696-4.4126-5.369 3.2383c-2.953 1.781-5.5241 3.3746-5.7135 3.5413-0.18947 0.16667 1.335 4.1321 3.3877 8.812 2.0527 4.6799 3.7322 8.5739 3.7322 8.6532 0 0.0793-2.8144 1.4732-6.2542 3.0976l-6.2542 2.9534v1.3554c0 1.7679 1.4886 1.7129 5.2186-0.19281l3.0303-1.5482-1.4842 4.1562c-7.7206 21.62-25.789 47.648-43.208 62.244l-7.3362 6.1466v7.605l-9.2336 5.7563c-5.0785 3.166-9.5346 5.7563-9.9024 5.7563s-0.66887-2.697-0.66887-5.9934v-5.9934l18.241-12.213 9.4476-9.2697c8.7858-8.6202 18.175-19.761 18.175-21.565v-0.77992l-12.734 1.4602-7.3775 7.6734c-7.9197 8.2375-15.983 14.867-26.795 22.03-3.7264 2.469-7.12 4.9703-7.5412 5.5585-0.42119 0.58824-0.77299 5.3563-0.78177 10.596-8e-3 5.2394-0.25583 9.5262-0.54902 9.5262-0.29318 0-5.8047-2.1052-12.248-4.6781l-11.715-4.6781-20.326 4.6656v14.817l-11.951 6.7801c-6.5733 3.729-12.085 6.7493-12.248 6.7118-0.16296-0.0376-5.7889-3.1658-12.502-6.9516zm-130.27-187.88 0.34749-1.8023h-15.862l1.1415 2.1073 1.1415 2.1073 12.884-0.61001zm301.24 0 0.34833-1.8023h-17.678l1.112 4.2014 15.869-0.59685zm-296.02-18.023 0.33308-2.3172h-52.263v1.4936c0 0.82149 0.82085 1.9707 1.8241 2.5538l1.8241 1.0601 47.949-0.47312zm326.52 1.766 2.0162-1.0661v-3.0171h-52.118v1.8881c0 1.0384 0.31271 2.197 0.69491 2.5746l0.6949 0.68658h46.696zm-363.36-50.376c0.33672-0.53829 1.3964-8.1695 2.3548-16.958l1.7426-15.98-0.69723-0.68886-0.69723-0.68887-2.6167 1.694c-1.4392 0.9317-3.2774 2.9641-4.0848 4.5164l-1.4681 2.8224-1.1595 10.596c-0.63771 5.8281-1.1595 11.737-1.1595 13.131v2.5343h7.1735zm358.06-0.30862c-0.0122-0.70803-0.6647-6.9687-1.45-13.913l-1.4278-12.625-1.7322-2.612c-1.6968-2.5585-6.3669-5.3824-7.3291-4.4318-0.45119 0.44579 1.906 23.944 3.1621 31.522l0.55478 3.347h8.2444l-0.0222-1.2873zm-301-64.083 0.29881-2.0339 5.2118-2.6843 37.191 0.57302 1.9909 2.4313c1.095 1.3372 1.9909 2.7275 1.991 3.0896l6e-5 0.6583h-46.983zm189.49 0.90623c5e-5 -0.62024 0.98713-2.0106 2.1935-3.0896l2.1934-1.9619h39.07l1.7249 1.4134c0.94871 0.77739 1.7249 2.1677 1.7248 3.0896l-1.7e-4 1.6762h-46.906zm8.9898-12.26c0.34423-1.1328 1.0654-2.5232 1.6026-3.0896l0.97673-1.0299h24.988l0.98937 1.5448c0.54414 0.84964 0.99655 2.24 1.0053 3.0896l0.0159 1.5448h-30.203l0.62587-2.0597zm-190.34 0.25747c8e-3 -0.70803 0.4429-1.954 0.96471-2.7687l0.94873-1.4814 18.397-0.79427 8.3389 1.7813 0.33308 2.2752 0.33309 2.2752h-29.331l0.016-1.2873z" stroke-width="1.0361"/>
 </g>
 <g id="division-sea-force" class="division" display="none">
  <path d="m296.53 470.71-12.631-7.0356-0.22965-7.094-0.22964-7.094-0.9186-0.14635c-0.50522-0.0805-4.2578-0.93669-8.3392-1.9027-4.0813-0.96599-7.9123-1.7563-8.5133-1.7563h-1.0927l-24.769 9.7531-0.22965-10.501-0.22965-10.501-1.1482-0.88637c-0.63153-0.48751-3.4218-2.3066-6.2005-4.0423-11.697-7.3066-21.832-15.872-31.934-26.989l-2.5132-2.7658-6.3794-0.69407c-3.5086-0.38174-6.5618-0.69407-6.7848-0.69407-0.4343 0 2.4112 3.6882 7.5774 9.8215 1.758 2.0871 6.0443 6.5442 9.525 9.9047l6.3287 6.11 5.7662 4.4711c3.1714 2.4591 8.1128 5.9772 10.981 7.818 2.868 1.8408 5.4658 3.6411 5.7727 4.0006l0.55809 0.65363-5e-3 6.6239-5e-3 6.6239-0.592-0.13465c-1.1684-0.26574-11.251-6.4582-16.782-10.307l-2.8706-1.9975v-6.8782l-1.1423-0.72751c-2.5385-1.6167-12.687-10.68-16.955-15.142-7.8089-8.1637-15.229-17.718-21.128-27.204-1.1838-1.9038-4.0943-7.3279-6.4678-12.054l-4.3155-8.5923-2.11-5.7511c-1.1605-3.1631-2.0432-5.816-1.9614-5.8955 0.0817-0.0794 2.1736 0.9743 4.6487 2.3416l4.5002 2.4861 0.36707-0.38526c0.20189-0.2119 3.2022-6.7134 6.6675-14.448 3.4652-7.7344 6.5969-14.62 6.9594-15.301l0.65896-1.2387-1.4961-12.255-4e-3 -8.7054-4e-3 -8.7054 0.50772-4.0179c0.27925-2.2098 0.83096-5.9532 1.226-8.3185l0.71828-4.3006-0.51077-1.8437-0.51077-1.8437-1.4061-1.5566c-0.77344-0.85616-1.5645-1.5566-1.758-1.5566-0.42479 0-1.991 7.2378-3.0914 14.286l-0.80153 5.134-0.0117 12.165c-6e-3 6.6907-0.0617 12.165-0.12281 12.165-0.176 4.4e-4 -17.012-9.2679-20.442-11.254-1.7051-0.98715-3.0949-1.9224-3.0884-2.0784 7e-3 -0.15598 3.3314-2.0851 7.3886-4.287l7.3768-4.0034 1.72-2.3478 0.72426-4.8674c0.39834-2.6771 0.81928-5.1328 0.93542-5.4572l0.21116-0.58975-2.6391 1.4418c-1.4515 0.79299-2.8457 1.584-3.0984 1.7577-0.25261 0.17373-1.3894 0.81808-2.5261 1.4319s-5.9206 3.2523-10.631 5.8634c-4.7102 2.611-8.8298 4.7474-9.1548 4.7474s-3.5628-1.6349-7.1953-3.6331l-6.6046-3.6331 0.3729-0.32659c0.20509-0.17963 3.8865-2.2761 8.1809-4.6588 4.2944-2.3827 8.1966-4.7694 8.6714-5.3038l0.86337-0.97157-0.64496-32.59-1.2204-1.7857-6.5905-3.5398c-3.6248-1.9469-7.6674-4.1994-8.9836-5.0055l-2.3931-1.4657-1.8918-3.6043 0.12395-31.174 0.12394-31.174 2.4401-3.1091 46.826-26.062h3.0166l8.5355 4.7694c4.6945 2.6232 9.0907 5.0942 9.7693 5.4913l1.2338 0.72188-7.4343 4.1824c-4.0889 2.3003-8.8811 5.0177-10.649 6.0385-1.7683 1.0208-4.0535 2.3079-5.0782 2.8601-1.0247 0.55221-2.1401 1.435-2.4785 1.9618l-0.61536 0.95774 0.173 33.772 0.97404 2.0779 13.97 7.6463c7.6834 4.2055 14.141 7.6463 14.35 7.6463 0.46496 0 2.122-1.7315 1.859-1.9426-0.10371-0.0832-6.5441-3.6165-14.312-7.8517l-14.123-7.7003v-33.275l13.824-7.7459c7.6034-4.2603 14.134-7.9656 14.511-8.2342l0.68696-0.48825-7.5071-4.2154c-4.1289-2.3184-7.9205-4.4318-8.4257-4.6964-0.50523-0.2646-2.6432-1.4582-4.7509-2.6524l-3.8324-2.1714-4.44 0.0651-4.1066 2.2842c-2.2587 1.2563-4.2371 2.2842-4.3966 2.2842-0.15948 0-0.28881-2.6618-0.2874-5.9152l3e-3 -5.9152 0.9806-3.4326 2.9183-2.9994 15.846-8.8063c8.7152-4.8435 18.119-10.057 20.898-11.585s6.9124-3.8022 9.1859-5.0528l4.1337-2.2738 2.7772-2e-3 6.4194 3.6198c3.5307 1.9909 8.2279 4.6153 10.438 5.8321 2.2104 1.2167 4.0184 2.3501 4.0178 2.5186-4.6e-4 0.16852-5.736 3.5185-12.745 7.4444l-12.744 7.138-2.5261 2.3965 2e-3 18.45 2e-3 18.45 1.6027 2.5159 9.8749 5.3713c5.4312 2.9542 11.838 6.4385 14.238 7.7427 2.3998 1.3042 8.0428 4.3981 12.54 6.8753 4.4972 2.4772 8.5275 4.4968 8.9563 4.4881 0.42875-9e-3 1.2725-0.28141 1.875-0.60602l1.0955-0.59021-0.40652-0.23336c-1.205-0.69187-28.919-15.74-37.839-20.546-3.6629-1.9735-7.2002-3.9543-7.8606-4.4018l-1.2008-0.8135-0.0891-10.029-0.0891-10.029 1.3369-2.5122 26.48-14.732h2.3205l5.15 2.9018c2.8325 1.596 5.1577 3.0404 5.1671 3.2097 9e-3 0.16935-2.8248 1.8742-6.2982 3.7885-3.4734 1.9143-6.8125 3.9575-7.4202 4.5404l-1.1049 1.0598 0.29733 9.2798c0.16354 5.1039 0.40471 9.5518 0.53596 9.8842l0.23862 0.60443 5.8508 3.1739c3.218 1.7456 11.328 6.137 18.022 9.7587 6.6942 3.6217 12.367 6.7632 12.606 6.981l0.43516 0.39618-1.0167 4.1306c-0.55917 2.2718-1.0126 4.3315-1.0077 4.5771 5e-3 0.24553 1.2484 1.8382 2.7632 3.5393 1.5148 1.7011 2.7542 3.2158 2.7542 3.3659s-3.2454 2.0731-7.2119 4.2732l-7.2119 4.0002-1.8861 1.8504-1.8861 1.8504-4.7428 2.3134c-17.553 8.562-31.663 20.744-42.681 36.85l-3.9744 5.8098-2.6116 5.1278c-6.2401 12.252-9.8827 24.15-11.342 37.048l-0.47993 4.2411v15.179l0.47993 4.2411c1.4595 12.898 5.102 24.795 11.342 37.048l2.6116 5.1278 3.9744 5.8098c8.6925 12.707 18.628 22.352 31.632 30.708l4.8226 3.0991 14.381 6.9348 14.095 4.4958 5.7412 1.1326c3.1577 0.62294 7.7482 1.3443 10.201 1.603l4.46 0.47039h15.688l4.46-0.47039c2.453-0.2587 7.0436-0.98006 10.201-1.603l5.7412-1.1326 14.095-4.4958 14.381-6.9348 4.8226-3.0991c13.004-8.3564 22.939-18.002 31.632-30.708l3.9744-5.8098 2.6116-5.1278c6.2445-12.261 9.8863-24.189 11.38-37.271l0.45861-4.0179v-15.179l-0.45861-4.0179c-1.4932-13.082-5.135-25.01-11.38-37.271l-2.6116-5.1278-3.9744-5.8098c-8.452-12.355-18.491-22.201-30.697-30.107-4.9296-3.1929-6.9-4.2938-13.144-7.344l-5.0139-2.4491-2.5491-2.6841-14.655-8.206 6.3018-6.9398-1.0807-4.3974c-0.59438-2.4186-1.0866-4.5396-1.0938-4.7134-0.0157-0.37907-0.1886-0.28199 19.737-11.083 8.7151-4.7242 16.211-8.8978 16.658-9.2747l0.81218-0.68531-0.12324-10.06-0.12325-10.06-3.2151-1.8412c-1.7683-1.0127-4.1452-2.3532-5.2819-2.9788-1.1368-0.62569-2.9678-1.6427-4.069-2.2599l-2.0022-1.1223 3.1504-1.7777c6.1583-3.4749 8.2847-4.5687 8.8815-4.5687 0.87263 0 25.708 13.841 27.287 15.208l1.3267 1.148 0.22367 3.3875c0.12301 1.8631 0.0728 6.7114-0.11154 10.774l-0.3352 7.3863-10.86 5.8994c-5.9732 3.2447-12.204 6.6459-13.846 7.5583-1.642 0.91241-6.3957 3.5129-10.564 5.7789-4.1681 2.266-8.4886 4.6266-9.6011 5.2458l-2.0227 1.1258 1.1042 0.59472c1.979 1.0659-0.61638 2.3247 32.599-15.811l14.041-7.6666 2.2306-2.3069 0.237-36.76-0.59101-1.1154-0.591-1.1154-12.847-7.2264c-7.0659-3.9745-13.235-7.4578-13.709-7.7406l-0.86164-0.51416 2.9285-1.6744c1.6107-0.92094 6.2354-3.5359 10.277-5.811l7.3487-4.1366 3.3971-0.4652 2.6648 1.4459c1.4656 0.79526 4.5249 2.5047 6.7984 3.7987 2.2735 1.294 11.678 6.5153 20.898 11.603s17.845 9.9313 19.165 10.764l2.4008 1.5137 2.0698 3.7991 0.16597 6.5849 0.16598 6.5849h-0.42302c-0.23267 0-2.0601-0.90846-4.061-2.0188s-4.3678-2.2112-5.26-2.4463l-1.622-0.42753-1.6016 0.42985c-1.3784 0.36994-23.422 12.422-24.465 13.376l-0.3749 0.34295 1.9824 1.1944c1.0903 0.65689 6.6328 3.7826 12.317 6.9461s11.264 6.3192 12.401 7.0128l2.0668 1.261 0.2408 32.665-0.80934 0.6645c-0.8106 0.66553-1.8349 1.2364-18.492 10.306-4.9256 2.6819-9.0408 4.959-9.1448 5.0601-0.23382 0.22728 1.3575 1.9751 1.7983 1.9751 0.17585 0 2.2623-1.0716 4.6366-2.3813 2.3743-1.3097 8.3472-4.5688 13.273-7.2422l8.9563-4.8609 2.5261-2.4112v-34.394l-2.0668-2.2688-11.712-6.5305c-6.4416-3.5918-11.882-6.6824-12.089-6.8682l-0.37655-0.33769 2.9027-1.5697c1.5965-0.86332 5.9715-3.3002 9.7223-5.4153l6.8196-3.8456h3.1306l45.907 25.538 1.3371 1.3293 1.3371 1.3293 0.52852 1.8617 0.5285 1.8617-0.1346 30.167-0.1346 30.167-2.2446 3.1834-3.0114 1.7642c-1.6562 0.97031-5.7473 3.2526-9.0913 5.0718l-6.0799 3.3076-0.67518 1.3393-0.15701 16.525-0.157 16.525 1.063 0.92165c0.9562 0.82908 12.871 7.6743 15.412 8.8545 0.56623 0.26298 0.9685 0.66118 0.89394 0.88488-0.19454 0.58364-12.321 7.4058-13.164 7.4058-0.3874 0-6.6874-3.3148-14-7.3661-7.3126-4.0514-13.425-7.3661-13.583-7.3661s0.0556 2.3175 0.47432 5.1499l0.76139 5.1499 0.92698 1.2117 0.92697 1.2117 14.147 7.7934 0.13051 0.58846 0.13052 0.58847-1.9677 1.0568c-1.0822 0.58124-6.2576 3.4346-11.501 6.3408-5.2432 2.9062-9.5835 5.2841-9.6452 5.2841-0.0617 2e-5 -0.0384-3.9291 0.0518-8.7314l0.16402-8.7314-0.52258-5.8893c-0.57011-6.425-0.94788-8.9121-2.3997-15.798l-0.95962-4.5515-2.1422 1.3643-1.928 3.8711-0.0471 1.7105c-0.0259 0.94079 0.34607 3.9204 0.82661 6.6213l0.87371 4.9108-0.0292 27.679-0.54954 3.4222-0.54955 3.4222 7.1777 15.551c3.9477 8.5532 7.2213 15.607 7.2745 15.675 0.0533 0.068 1.8967-0.90601 4.0964-2.1645 2.1998-1.2584 4.083-2.207 4.1851-2.1078 0.10203 0.0992-0.94016 3.1634-2.316 6.8093l-2.5015 6.629-3.6576 7.1856c-9.9684 19.584-23.272 36.347-39.578 49.869l-5.4385 4.5103-0.1326 3.6171-0.13261 3.6171-5.2819 3.5086c-4.6858 3.1126-14.02 8.8048-14.438 8.8048-0.0864 0-0.30549-2.5939-0.48691-5.7643l-0.32986-5.7643 0.51867-1.5276 0.51866-1.5276 5.9014-3.8606c14.217-9.3005 26.584-20.649 36.992-33.946l3.0934-3.9519-1.7614 0.26035c-0.96877 0.14319-3.8282 0.46904-6.3544 0.7241l-4.593 0.46375-2.9433 3.2278c-9.4518 10.366-19.236 18.632-31.389 26.52-3.9787 2.5824-7.389 4.9271-7.5784 5.2105l-0.34437 0.51525-0.22965 10.117-0.22964 10.117-24.802-9.7987-1.6075 0.18203c-0.88415 0.10012-4.5011 0.89949-8.0377 1.7764s-7.3036 1.7284-8.3712 1.8921l-1.9411 0.29778-0.12575 7.4125-0.12576 7.4125-11.907 6.6127c-6.5487 3.637-12.026 6.595-12.171 6.5734-0.14549-0.0216-5.9483-3.2053-12.895-7.0748zm-121.57-232.06 0.24786-1.2277-0.30914-0.3077c-0.17003-0.16923-8.4731-4.7661-18.451-10.215s-18.607-10.318-19.176-10.819l-1.0334-0.91169v-23.013l1.4927-1.0683c0.82099-0.58759 5.5884-3.34 10.594-6.1165l9.1016-5.0482-0.60462-0.37266c-0.33254-0.20496-1.3213-0.37573-2.1972-0.37949l-1.5925-7e-3 -6.2155 3.4516c-3.4185 1.8984-7.4556 4.18-8.9713 5.0703l-2.7558 1.6187-1.7182 2.8494-0.43414 18.456 0.3146 2.8554 0.31459 2.8554 2.901 2.9305 17.271 9.3876c9.4989 5.1632 17.973 9.8036 18.831 10.312 1.9956 1.1825 2.0933 1.1703 2.3901-0.29972zm285.33-7.5508c8.832-4.8282 17.582-9.596 19.444-10.595l3.386-1.8167 1.0921-1.5621 1.0921-1.5621-4e-3 -23.677-1.6892-2.6786-17.368-9.6991-3.3362-0.44905-0.80993 0.44057-0.80994 0.44057 3.167 1.785c1.7418 0.98179 6.1639 3.4404 9.8268 5.4637 3.6629 2.0232 7.0215 4.0806 7.4636 4.572l0.80377 0.89343v22.024l-1.3739 1.9066-6.3173 3.4c-3.4743 1.87-11.898 6.4601-18.718 10.2l-12.401 6.8003-0.14393 1.4459-0.14392 1.4459h0.3908c0.21493 0 7.617-3.9503 16.449-8.7785z" display="inline" stroke-width=".45282"/>
 </g>
 <g id="division-space-force" class="division" display="none">
  <path d="m297.02 471.37-12.489-6.9051-3e-3 -7.0362-3e-3 -7.0361-8.1204-1.9491c-4.4662-1.072-9.2294-1.9407-10.585-1.9303l-2.4645 0.0188-10.794 4.2896c-5.9365 2.3593-11.051 4.2896-11.367 4.2896l-0.57311-1e-5v-19.732l-1.5368-1.3335c-0.84524-0.73342-6.0813-4.4674-11.636-8.2977l-10.099-6.9642-19.553-19.243-12.5-1.2264v0.58119c0 1.2668 8.7405 11.599 16.154 19.095 7.2544 7.3355 12.193 11.373 25.339 20.717l5.0495 3.589v5.9784c0 3.2881-0.21177 5.9784-0.4706 5.9784-0.25882 0-4.2042-2.3213-8.7676-5.1584l-8.297-5.1584-3.7463 1.6052c-6.9098 2.9607-8.8706 3.6655-23.024 8.276l-14.093 4.5909-19.32 3.7232-21.076 8e-3 -3.9518-1.4065c-2.1735-0.7736-5.2638-2.2585-6.8675-3.2998l-2.9158-1.8939-4.6555-8.5792 0.0359-8.1503 0.0359-8.1503 2.3424-6.8634c1.2883-3.7749 2.3474-7.115 2.3536-7.4226 6e-3 -0.30757-2.3598-0.82805-5.2578-1.1566l-5.269-0.59743v-0.70804c0-0.38942 2.9638-2.5422 6.5862-4.7841 3.6224-2.2418 6.5862-4.2036 6.5862-4.3595 0-0.15588-0.98793-2.2841-2.1954-4.7294s-2.1954-4.7863-2.1954-5.2023v-0.75632l13.982 1.1916 26.807-20.939 0.26031 0.76291c0.14317 0.4196-1.5075 7.8361-3.6682 16.481l-3.9285 15.718 7.1014 12.641h-12.313l-0.60207 5.791c-0.33114 3.185-0.88236 7.1422-1.2249 8.7937l-0.62286 3.0027-2.7526-4.283-2.7526-4.283-1.2631 2.9961c-0.69469 1.6478-1.5311 4.5879-1.8588 6.5334l-0.59569 3.5373 1.3023 3.0449 1.3022 3.0449 2.2952 1.4692c1.2624 0.80806 4.0687 1.7929 6.2364 2.1885l3.9412 0.71932 6.79-0.83827c8.9042-1.0993 19.777-4.1932 34.891-9.9286 18.735-7.1092 20.159-7.9962 15.89-9.8964l-2.1123-0.94025-5.1326 2.3745c-7.6778 3.552-24.454 9.6661-31.917 11.632l-6.5863 1.7351-15.917 0.99332-3.238-1.5011c-1.7809-0.82561-3.238-1.8121-3.238-2.1921v-0.69102l6.5862 1.7853 13.172-0.91225 7.0253-1.8887c3.8639-1.0388 7.5193-2.2788 8.123-2.7555l1.0977-0.86684v-8.2446l2.1809-1.676c1.1995-0.92179 5.3544-2.9257 9.233-4.4531 3.8786-1.5274 7.2626-3.1099 7.5199-3.5167l0.46782-0.7395-5.835-6.6661c-3.2092-3.6664-8.6176-10.72-12.019-15.674l-6.1835-9.0082-3.7659-7.8091c-3.4288-7.1101-7.4057-17.524-7.4057-19.393v-0.7524l3.9914 2.2852c2.1953 1.2569 4.1613 2.1193 4.3689 1.9164 0.20763-0.20284 3.5016-7.3622 7.3198-15.91l6.9423-15.541-1.7195-16.004 0.51736-10.295c0.28455-5.6623 0.93588-12.775 1.4474-15.806l0.93003-5.5104-0.94749-2.2347c-0.52113-1.2291-1.6968-2.6918-2.6126-3.2506l-1.6651-1.0159-0.98744 4.4714c-1.8453 8.3562-2.7084 17.315-2.7278 28.316l-0.0194 10.976-5.004-2.7482c-2.7522-1.5115-7.7374-4.2855-11.078-6.1644l-6.074-3.4163 1.6832-1.2339c0.92577-0.67866 3.4615-2.128 5.635-3.2207 2.1735-1.0928 4.9827-2.9233 6.2428-4.068l2.291-2.0812 1.0799-7.215c1.2824-8.5686 4.3301-20.348 7.4518-28.803l2.2542-6.1052v-19.681l4.4967-2.4956c2.4732-1.3726 5.9244-3.2678 7.6693-4.2115s3.1348-2.1019 3.0886-2.5738c-0.0462-0.47186-4.3837-3.0858-9.6389-5.8087-5.2552-2.7229-10.227-5.6184-11.048-6.4344-0.82095-0.81602-2.4542-4.0896-3.6295-7.2747l-2.1369-5.791h0.7072c0.38896 0 4.5783 1.7553 9.3096 3.9006l8.6024 3.9006 5.1772-0.50884 0.29762-0.88853 0.29761-0.88853-11.207-5.8928c-6.1639-3.241-12.78-6.7053-14.703-7.6984l-3.4959-1.8057-13.117-21.778-14.842 7.5272 1.0801-19.691-5.4582-6.8602c-3.002-3.7731-6.8413-8.5694-8.5318-10.658-6.3125-7.8004-13.713-17.194-14.355-18.221l-0.66457-1.0626 1.1433 0.38522c0.62882 0.21186 10.913 2.7392 22.854 5.6163l21.711 5.2311 8.6469-4.3392c4.7558-2.3866 8.817-4.3397 9.025-4.3402 0.20795-5.7e-4 0.37808 3.5706 0.37808 7.9358v7.9368l24.563 2.5738-6.354 3.6845c-3.4947 2.0265-6.354 4.0532-6.354 4.5038s5.0385 3.2894 11.197 6.3084c10.089 4.9459 16.121 8.0618 28.321 14.629 2.1735 1.17 5.1373 2.7202 6.5862 3.445 1.449 0.72477 9.1258 5.1902 17.06 9.9231l14.425 8.6054 7.1001-2.5099c8.6651-3.0631 18.638-4.9421 32.499-6.1228l10.49-0.89358 7.9516 0.52384c4.3734 0.28811 12.694 1.2708 18.49 2.1837l10.538 1.6599 14.167 5.215 8.088-4.9875c4.4484-2.7431 9.1642-5.6574 10.48-6.4762 1.3154-0.81874 3.2615-1.8637 4.3248-2.3222s3.4343-1.7581 5.269-2.8881c5.7981-3.571 21.288-11.703 35.608-18.694 7.6071-3.7137 13.831-7.0641 13.831-7.4454 0-0.3813-2.5686-2.1612-5.7081-3.9554s-5.7081-3.5592-5.7081-3.9224v-0.66028l10.95-1.1221c6.0226-0.61714 11.273-1.3452 11.667-1.6179l0.7171-0.49583-0.52138-7.2924c-0.28675-4.0108-0.44121-7.4127-0.34325-7.5598 0.098-0.14711 4.199 1.7038 9.1133 4.1131l8.9352 4.3805 21.673-5.2271c11.92-2.8749 22.188-5.397 22.817-5.6046l1.1433-0.37748-0.6661 1.0626c-1.0623 1.6947-10.648 13.777-22.463 28.315l-5.9134 7.276 0.55908 9.5461 0.55907 9.5461h-0.59275c-0.32601 0-3.6539-1.5037-7.3954-3.3415l-6.8026-3.3415-13.14 22.298-6.1472 3.0047c-11.116 5.4333-22.393 11.695-22.393 12.434 0 0.39913 0.90631 1.1291 2.014 1.6222l2.014 0.8965 9.4655-4.4276c5.206-2.4352 9.6431-4.2542 9.8601-4.0422 0.21702 0.21202-0.47 2.6614-1.5267 5.4431l-1.9213 5.0576-4.5378 4.8539-19.153 9.585 1.8038 1.3598c0.9921 0.74789 4.8076 3.0077 8.479 5.0219l6.6752 3.662v20.614l1.3639 3.189c2.2024 5.1497 6.3638 21.472 7.4845 29.357 1.2133 8.5367 1.7408 9.7453 4.9779 11.407 3.0801 1.5806 10.977 5.7898 11.917 6.3519l0.71546 0.42783-5.9845 3.4207c-3.2914 1.8814-8.3555 4.7156-11.253 6.2984l-5.269 2.8778-0.0866-12.174-0.0866-12.174-1.0449-6.4344c-0.57472-3.5389-1.4649-7.9721-1.9782-9.8515l-0.93325-3.417-4.4401 5.0429 0.77219 6.4721 0.77218 6.4721 4e-3 19.303 4e-3 19.303 5.1506 11.153c2.8328 6.1342 5.8823 12.8 6.7766 14.814l1.6261 3.6608 3.3049-1.7305c1.8176-0.95177 3.6015-1.7305 3.9641-1.7305 0.95686 0-2.36 8.5075-7.3587 18.874l-4.3436 9.0082-6.5028 9.4372c-3.5765 5.1904-8.9663 12.091-11.977 15.334l-5.4744 5.8971 1.653 1.1808c0.90913 0.64945 2.0714 1.1844 2.5828 1.1887 0.51143 4e-3 2.9057 0.95741 5.3207 2.118 2.415 1.1606 5.0135 2.1222 5.7746 2.137 0.76104 0.0148 2.243 0.92036 3.2931 2.0124l1.9094 1.9856v8.8373l1.5368 0.77105c2.3965 1.2024 15.934 4.2834 21.347 4.8586l4.8814 0.51864 7.8006-1.691-1.6554 1.1981c-0.91045 0.65893-3.4791 1.4662-5.7081 1.7939l-4.0527 0.59581-15.75-2.1736-9.7117-3.2715c-5.3414-1.7994-14.285-5.165-19.875-7.4792l-10.163-4.2077-1.9285 1.5256-1.9285 1.5256 2.2434 1.436c1.2338 0.78981 3.5241 1.8982 5.0894 2.463 1.5653 0.56484 4.0316 1.5376 5.4806 2.1616 6.1843 2.6634 8.4608 3.4981 18.881 6.9223 12.082 3.9705 21.586 5.9164 28.98 5.9334l4.8299 0.0111 3.5793-1.5882 3.5793-1.5882 1.5763-3.2452 1.5763-3.2452-0.49212-4.0594c-0.27066-2.2327-1.1169-5.5202-1.8804-7.3056l-1.3883-3.2461-5.8603 9.0802-0.58851-5.4657c-0.32367-3.0061-0.8241-7.1321-1.112-9.1688l-0.52353-3.7031-11.199 1.1717v-0.55033c0-0.30267 1.4122-3.2899 3.1382-6.6383l3.1382-6.0879-3.591-14.266c-1.975-7.8465-3.8072-15.202-4.0716-16.347l-0.48056-2.0802 1.1529 0.88883c0.63411 0.48886 6.6448 5.1891 13.357 10.445l12.204 9.5561h14.699l-2.2102 4.2611c-1.2156 2.3436-2.1962 4.7565-2.1791 5.362l0.0312 1.1009 14.427 8.5583-12.477 1.4419 2.6618 7.4398 2.6618 7.4398 0.34995 7.7213 0.34993 7.7213-4.9627 9.4372-12.121 6.0055-27.397-0.0997-9.434-2.29c-11.058-2.6843-31.336-9.06-40.299-12.671l-6.2947-2.5359-8.1409 5.1521c-4.4775 2.8336-8.3698 5.1521-8.6496 5.1521-0.27976 0-0.50866-2.6302-0.50866-5.845v-5.845l2.415-2.1943c1.3282-1.2068 3.6005-2.9163 5.0495-3.7987 10.176-6.1973 24.017-18.82 33.731-30.763 2.941-3.6156 5.3473-6.7976 5.3473-7.0711 0-0.27345-2.8155-0.26658-6.2567 0.0153l-6.2567 0.51244-15.777 16.423-10.437 7.6759c-5.7405 4.2218-11.578 8.252-12.971 8.9561-1.3937 0.7041-2.7795 1.9051-3.0795 2.669-0.30002 0.76383-0.5455 5.6452-0.5455 10.848v9.4588l-1.0977-0.42678c-0.60373-0.23472-5.247-2.0586-10.318-4.0532-5.0714-1.9945-10.39-3.9634-11.82-4.3752l-2.5988-0.74882-18.952 4.4956v14.842l-11.716 6.6233c-6.4439 3.6428-11.889 6.6233-12.1 6.6233s-6.0036-3.1073-12.872-6.9051zm34.997-51.958c15.447-2.5796 30.966-8.7405 44.715-17.751l6.5932-4.3211 13.314-13.007 4.423-6.4412c9.2576-13.482 15.568-28.679 18.164-43.747l1.4044-8.1503 0.15121-14.585 0.15121-14.585-1.8632-8.3336c-3.5408-15.837-9.2381-29.077-18.007-41.848l-4.423-6.4413-13.314-13.007-6.5932-4.3211c-13.404-8.7846-27.402-14.457-43.395-17.584l-8.8485-1.73-28.101-0.0652-8.7817 1.5029c-16.072 2.7505-31.363 8.7955-45.219 17.876l-6.5932 4.3211-13.314 13.007-4.423 6.4413c-9.2235 13.432-15.53 28.593-18.17 43.684l-1.415 8.087v27.707l1.415 8.087c2.6405 15.091 8.9467 30.252 18.17 43.684l4.423 6.4412 13.314 13.007 6.5932 4.3211c13.363 8.7578 29.49 15.222 44.34 17.773l7.0253 1.2068 29.987 0.154 8.2778-1.3824zm-114.4-214.18 0.26519-1.3038-13.094-7.3314c-7.2018-4.0322-19.275-10.479-26.83-14.325l-13.735-6.994v2.1492c0 1.1821-0.23226 2.7405-0.51613 3.4632l-0.51611 1.314 13.03 6.3962c7.1665 3.5179 17.737 8.9422 23.491 12.054 5.7534 3.1118 10.743 5.6578 11.089 5.6578 0.3456 0 1.1289 0.58922 1.7407 1.3094l1.1123 1.3094 1.8492-1.1974c1.0171-0.65858 1.9686-1.7841 2.1144-2.5012zm190.91 1.0798c0.2623 0 4.3805-2.1745 9.1516-4.8321 4.7711-2.6577 15.21-8.016 23.198-11.907l14.523-7.0753-0.34766-3.5615-0.34766-3.5615-13.641 6.9458c-7.5024 3.8202-19.513 10.233-26.689 14.252l-13.049 7.3058v1.1687c0 0.64279 0.86687 1.7619 1.9264 2.4869l1.9264 1.3182 1.4359-1.2695c0.78975-0.69824 1.6505-1.2695 1.9128-1.2695zm-258.26 65.565-13.51-6.3721-6.1135 1.7787c-3.3624 0.97829-6.2588 1.6368-6.4363 1.4634-0.17751-0.17342 0.25552-2.1925 0.96229-4.4868 0.70678-2.2943 1.285-4.4722 1.285-4.8398 0-0.36759-3.359-1.737-7.4644-3.0432-4.1054-1.3062-7.4644-2.6181-7.4644-2.9153s2.371-1.1844 5.269-1.9716l5.269-1.4312v-0.89145c0-0.49029-3.853-5.0419-8.5621-10.115-21.802-23.485-38.527-45.901-48.008-64.345l-4.0175-7.8149-4.3967-14.822v-11.623l4.9115-9.2042 12.036-6.0055h25.885l1.8701 2.1448c1.0286 1.1796 2.2359 2.7535 2.6829 3.4974l0.81277 1.3526-10.876-1.5486-14.735 0.92161-8.0078 3.9273-5.3528 6.5865-0.30701 6.6047-0.30701 6.6047 2.2834 6.6452c2.1466 6.2473 8.0019 18.6 8.8166 18.6 0.204 0-1.0464-2.992-2.7785-6.6489-3.8867-8.2054-5.4983-13.932-5.4931-19.518l4e-3 -4.2896 1.9614-3.3813 1.9614-3.3813 8.7405-4.3904 17.604 0.0517 14.432 2.2941 5.0784 6.5252c2.7932 3.5889 6.17 7.9444 7.5041 9.679l2.4257 3.1537-5.1729-1.5729c-2.8451-0.86508-8.1681-2.1773-11.829-2.916l-6.656-1.3432-10.173 0.0376-7.3479 3.2592-2.751 5.1972v6.68l1.7647 5.0111c4.7087 13.371 19.153 32.913 42.765 57.858l5.2521 5.5487 2.1665-6.3496 2.1665-6.3496 5.8493 15.848 1.138-0.42662c2.6084-0.97785 8.4754-2.3259 8.7891-2.0194 0.18628 0.18197-0.405 2.951-1.314 6.1534l-1.6526 5.8225 6.9146 13.635c3.803 7.4994 6.6267 13.606 6.2748 13.571-0.35193-0.0354-6.7193-2.9318-14.15-6.4365zm310.73-7.1496 6.9966-13.65-1.6618-5.855c-0.91401-3.2202-1.5305-5.9833-1.3699-6.1402 0.16055-0.15686 2.3841 0.32182 4.9413 1.0637l4.6494 1.3489 0.59721-0.64707c0.32846-0.3559 1.6998-3.9286 3.0475-7.9394l2.4503-7.2924 4.2932 12.579 2.6209-2.429c5.8879-5.4568 20.564-22.244 28.853-33.004l8.8314-11.464 4.4056-8.6142 4.4057-8.6142 0.4796-5.1673 0.47961-5.1673-2.9652-5.602-7.348-3.2592-10.173-0.0376-6.656 1.3432c-3.6608 0.73873-8.9979 2.0552-11.86 2.9255l-5.2042 1.5824 0.79523-0.9952c0.43738-0.54736 3.859-4.8559 7.6035-9.5744l6.8083-8.5792 9.9046-2.1765 21.954-0.39726 8.3303 4.0079 3.964 5.4292v14.585l-3.3491 7.2924c-4.7347 10.309-4.8044 11.158-0.17617 2.1448 2.1806-4.2467 4.587-9.7535 5.3476-12.237l1.3829-4.516 0.0622-5.3502 0.0622-5.3502-1.3485-3.0957c-1.7142-3.9352-4.5057-6.5466-9.2305-8.6348l-3.7366-1.6515-14.481-0.9041-10.978 1.5623 2.0744-2.6463c1.1409-1.4555 3.0182-3.143 4.1718-3.75l2.0975-1.1036 23.015 0.49137 12.03 6.0055 2.5365 4.7186 2.5364 4.7186-0.81828 15.443-1.9178 5.5765c-3.1133 9.0527-9.4164 20.787-17.892 33.309-4.3676 6.4528-9.0468 13.084-10.398 14.735-7.6995 9.4089-21.593 25.393-27.41 31.535-3.6903 3.8963-6.7096 7.46-6.7096 7.9195 0 0.45944 1.0241 1.0865 2.2758 1.3934 1.2517 0.30691 3.625 1.1992 5.274 1.9827l2.9982 1.4247-7.4694 2.3764c-4.1082 1.307-7.4647 2.642-7.459 2.9667 6e-3 0.32463 0.56273 2.6171 1.2378 5.0944l1.2273 4.5041h-0.65911c-0.36252 0-2.599-0.57493-4.97-1.2776-2.371-0.70267-5.2835-1.2818-6.4723-1.2869l-2.1614-9e-3 -12.923 6.0055c-7.1074 3.303-13.151 6.0055-13.431 6.0055s2.6398-6.1427 6.4879-13.65z" display="inline" stroke-width=".86799"/>
 </g>
 <g id="rank-raider" class="rank" display="none">
  <g transform="matrix(1.7053 0 0 1.7129 193 447.76)" stroke-width=".32">
   <path d="m46.745 8.7733c0.01536-0.37278 0.09118-0.44861 0.19333-0.19333 0.09244 0.231 0.08107 0.507-0.02525 0.61333-0.10634 0.10633-0.18196-0.082667-0.16807-0.42z" fill="#a3a3a3"/>
   <path d="m46.832 5.76c0-1.496 0.05512-2.108 0.1225-1.36 0.06737 0.748 0.06737 1.972 0 2.72s-0.1225 0.136-0.1225-1.36z" fill="#8c8c8c"/>
   <path d="m63.2 28.682c-8.6467-4.9905-22.763-12.977-23.304-13.185-0.40755-0.15639-0.53103-0.78997-0.60392-3.0987l-0.091613-2.9021-2.16-1.2921c-1.188-0.71067-2.052-1.3907-1.92-1.5111 0.27353-0.24955 11.049-4.7731 11.37-4.7731 0.11538 0 0.25036 1.6722 0.29994 3.7159l0.09016 3.7159 3.36 1.9184c1.848 1.0551 4.296 2.4616 5.44 3.1255 5.501 3.1923 12.518 7.0443 12.832 7.0443 0.19292 0 5.0887-2.6915 10.88-5.9812l10.529-5.9812v-3.7788c0-2.7973 0.10326-3.7788 0.39755-3.7788 0.45551 0 11.143 4.4532 11.552 4.8132 0.14808 0.13052-0.74695 0.79295-1.989 1.4721l-2.2582 1.2348-0.18208 5.7401-9.4286 5.37c-5.1857 2.9535-9.4553 5.37-9.4879 5.37-0.03261 0-2.3202 1.296-5.0835 2.88-2.7633 1.584-5.0458 2.8703-5.0721 2.8585-0.02634-0.01181-2.3519-1.3512-5.1679-2.9765z" fill="#767676"/>
  </g>
 </g>
 <g id="rank-sergeant" class="rank" display="none">
  <g transform="matrix(1.7102 0 0 1.703 192.31 448.51)" stroke-width=".32">
   <path d="m108.19 14.533c0.0154-0.37278 0.0912-0.44861 0.19333-0.19333 0.0924 0.231 0.0811 0.507-0.0252 0.61333-0.10634 0.10633-0.18197-0.08267-0.16808-0.42z" fill="#b9b9b9"/>
   <path d="m108.3 21.76c0-3.784 0.0463-5.332 0.10287-3.44 0.0566 1.892 0.0566 4.988 0 6.88s-0.10287 0.344-0.10287-3.44z" fill="#a3a3a3"/>
   <path d="m108.22 29.28c7e-3 -0.528 0.0782-0.70526 0.15937-0.39391 0.0811 0.31135 0.0758 0.74335-0.0119 0.96-0.0876 0.21665-0.15402-0.03809-0.1475-0.56609zm-7.6108-17.44c0-3.08 0.048-4.34 0.10666-2.8 0.0587 1.54 0.0587 4.06 0 5.6s-0.10666 0.28-0.10666-2.8z" fill="#8c8c8c"/>
   <path d="m64 43.258c-11.485-6.6345-27.568-15.738-27.803-15.738-0.14528 0-1.7458 0.648-3.5567 1.44-1.8109 0.792-3.3414 1.44-3.4011 1.44s-0.14684-3.8471-0.19372-8.549l-0.08523-8.549-1.9978-1.131c-1.0988-0.62204-1.9988-1.2193-2-1.3273-0.0012-0.10796 0.82577-0.56387 1.8378-1.0131 2.6214-1.1637 9.6396-4.0706 9.8277-4.0706 0.08699 0 0.19734 2.6845 0.24522 5.9655l0.08706 5.9655 15.68 8.9563c8.624 4.926 15.835 8.9615 16.025 8.9678 0.18952 0.0063 7.4975-4.0615 16.24-9.0397l15.895-9.0512v-5.8821c0-3.2352 0.0516-5.8821 0.11473-5.8821 0.2324 0 11.484 4.7717 11.655 4.9428 0.22575 0.22575 0.2962 0.17631-2.2495 1.5786l-2.16 1.1899v8.4643c0 4.6554-0.0602 8.4643-0.13373 8.4643-0.0735 0-1.5665-0.648-3.3178-1.44-1.7512-0.792-3.3277-1.44-3.5033-1.44-0.17558 0-7.4125 4.0502-16.082 9.0004-8.6696 4.9502-15.997 9.0527-16.283 9.1166-0.28607 0.06393-2.4641-1.0067-4.8401-2.3792zm-10-20.109-14.32-8.1852v-10.411l2.16-0.88741c1.188-0.48808 2.7903-1.1523 3.5607-1.476 0.77037-0.32373 1.4544-0.5886 1.52-0.5886 0.06562 0 0.11932 1.7023 0.11932 3.7829v3.7829l2.48 1.4091c1.364 0.77499 6.2056 3.5367 10.759 6.1371 4.5535 2.6004 8.352 4.728 8.441 4.728 0.08903 0 4.9674-2.7466 10.841-6.1034l10.679-6.1035v-3.8165c0-2.0991 0.10958-3.8165 0.24351-3.8165 0.2891 0 6.4585 2.6157 7.0365 2.9833 0.29247 0.18603 0.399 1.6042 0.39626 5.2755l-0.003735 5.0211-4.7163 2.6934c-14.976 8.5525-23.922 13.566-24.368 13.657-0.27928 0.05679-6.9518-3.5801-14.828-8.0819z" fill="#767676"/>
  </g>
 </g>
 <g id="rank-captain" class="rank" display="none">
  <path d="m306.89 567.87c-1.2666-3.7018-3.0936-8.9471-4.0603-11.656l-1.7573-4.9254-4.5861-2.5569-4.5856-2.5564 2.2983-1.4527c1.2642-0.79925 2.9019-1.7283 3.6395-2.0653 0.73765-0.33643 1.3412-0.79259 1.3412-1.014 0-0.22146-1.2038-2.8344-2.6753-5.807-1.4716-2.9725-2.4792-5.4795-2.2384-5.5709 0.24028-0.0892 2.6714 0.95708 5.4022 2.3305 2.7312 1.3736 5.1934 2.4972 5.4719 2.4972 0.27845 0 1.271-1.3573 2.2061-3.0159 0.93456-1.659 1.8025-3.0163 1.9286-3.0163 0.12564 0 1.0042 1.3574 1.9518 3.0163 0.94752 1.6586 1.956 3.0159 2.2404 3.0159 0.2849 0 2.977-1.2364 5.9831-2.7469 3.0063-1.5106 5.466-2.6166 5.466-2.4576 0 0.15901-1.2319 2.748-2.7376 5.7528-1.5062 3.0048-2.7346 5.6531-2.7303 5.8848 8e-3 0.43024 5.1878 3.5638 6.4266 3.8869 1.3086 0.34218 0.65079 0.93378-3.4637 3.1148-2.2759 1.2062-4.4133 2.5195-4.7496 2.9184-0.33632 0.39846-2.2806 5.6729-4.3205 11.72-2.0404 6.0467-3.8083 11.094-3.9289 11.214-0.12058 0.12157-1.2555-2.8089-2.5221-6.5106zm-22.221-25.844c-1.2048-0.70475-12.725-7.2792-25.6-14.61-17.049-9.7065-23.409-13.593-23.409-14.301 0-0.64613 1.0126-1.4368 3.0189-2.3568l3.0189-1.3838-0.14426-19.059-0.14414-19.059-2.8963-1.6555c-4.5498-2.6003-4.0872-3.1771 5.8809-7.3322 6.2221-2.5939 8.6849-3.385 9.309-2.9918 0.69442 0.43804 0.89841 2.2541 1.1224 10.002l0.27397 9.4669 6.9628 4.0073c3.8297 2.204 8.3886 4.7892 10.13 5.744 1.7418 0.95487 3.4137 1.9236 3.7147 2.1533 0.30142 0.22936 1.9032 1.163 3.5594 2.0747 4.5191 2.4872 10.796 6.0363 20.508 11.596 4.804 2.7498 9.0094 5.0002 9.345 5.0002 0.51962 0 27.837-15.41 48.315-27.254l6.1602-3.563 8e-3 -9.1305c5e-3 -5.0214 0.22488-9.472 0.4892-9.8897 0.64501-1.0203 1.7697-0.69134 10.813 3.1644 4.6403 1.978 7.6486 3.5681 7.7549 4.098 0.11125 0.55041-0.93752 1.5787-2.8748 2.8194l-3.0486 1.9527v37.863l3.012 1.3808c1.9957 0.91511 3.0115 1.7077 3.0115 2.3506 0 0.68115-2.7316 2.5275-9.1722 6.1986-5.0444 2.8753-16.622 9.4722-25.728 14.66-9.1057 5.1873-16.991 9.3475-17.523 9.2452-0.87608-0.16868-0.9805-1.142-1.1157-10.395l-0.14882-10.209 17.244-9.7993 17.244-9.7987 0.0161-3.2172c0.0145-2.9175-0.0846-3.1909-1.0458-2.9386-0.58439 0.15266-12.781 6.9677-27.104 15.144-14.324 8.1759-26.161 14.865-26.307 14.865-0.24381 0-16.866-9.4388-42.667-24.228-5.6909-3.262-10.681-5.9308-11.089-5.9308-0.53767 0-0.74003 0.86502-0.7371 3.1528 3e-3 3.0711 0.056 3.1829 2.0538 4.2981 18.364 10.262 31.874 18.203 32.004 18.812 0.0909 0.421 0.0916 5.1712 9.6e-4 10.556-0.18146 11.036-0.114 10.901-4.22 8.4987zm-0.42341-53.974-24.517-14.081 0.14945-9.0025 0.14957-9.002 5.6972-2.3858c3.1336-1.3118 5.9056-2.3851 6.1602-2.3851 0.25507 0 0.46347 2.9563 0.46347 6.5694v6.5688l2.2232 1.1357c1.2227 0.62475 9.5178 5.3205 18.433 10.435l16.211 9.2996 6.6182-3.7452c3.6401-2.0598 11.978-6.8036 18.528-10.542l11.91-6.7964v-6.4626c0-3.5542 0.22327-6.4625 0.49637-6.4625 0.27276 0 3.0452 1.0914 6.1602 2.4254l5.6643 2.4254 0.14959 8.9793 0.14944 8.9792-24.448 13.956c-13.446 7.676-24.725 14.005-25.064 14.064-0.33945 0.0614-11.65-6.2293-25.135-13.973z" stroke-width=".54796"/>
 </g>
 <g id="rank-major" class="rank">
  <path d="m308.68 621.83c-0.28483-0.67923-2.3576-6.7392-4.6063-13.467l-4.0885-12.231-5.4053-3.0744c-6.1126-3.4763-6.1015-3.1208-0.1962-6.2864 2.2759-1.2199 3.0807-1.9384 2.8783-2.5703-0.15452-0.48206-1.6061-3.5898-3.2256-6.9061-1.6196-3.3158-2.8789-6.1061-2.7985-6.2003 0.0804-0.094 2.3894 0.95686 5.1312 2.335 2.7418 1.3786 4.9898 2.319 4.9955 2.0897 0.21518-8.5538-0.10993-28.95-0.46348-29.068-0.43895-0.1475-28.335-15.961-37.439-21.224l-3.6702-2.1222-0.16274-8.4468c-0.0899-4.6455-0.0387-8.5101 0.11104-8.5875 0.15063-0.0726 4.3394 2.1894 9.3084 5.037 4.9692 2.8477 10.144 5.8123 11.499 6.5884 1.3552 0.77594 4.0657 2.3107 6.0231 3.4103 1.9576 1.0989 7.7642 4.3878 12.904 7.3075 5.1396 2.9198 9.5748 5.3086 9.8562 5.3086 0.28137 0 11.476-6.2592 24.877-13.91 13.401-7.6509 24.416-13.869 24.477-13.819 0.0612 0.0497 0.1471 3.8877 0.19103 8.5286l0.08 8.4373-6.7617 3.9163c-3.7189 2.1538-13.23 7.5812-21.135 12.06l-14.373 8.1446v14.423c0 7.9324 0.12819 14.422 0.28473 14.422 0.15657 0 2.4925-1.11 5.1909-2.4666 2.6983-1.3566 5.0361-2.4666 5.1951-2.4666 0.15886 0-1.1915 2.9562-3.0006 6.5687-1.8093 3.6129-3.2896 6.7754-3.2896 7.0275 0 0.25223 1.8565 1.5219 4.1255 2.8216 2.269 1.2992 3.9976 2.4902 3.8414 2.647-0.15623 0.15628-2.5464 1.5745-5.3116 3.1513l-5.0275 2.8672-4.5234 13.27c-2.4878 7.2986-4.6245 13.371-4.7479 13.495-0.12359 0.12315-0.4577-0.33096-0.74257-1.0107zm-50.857-69.743c-15.961-9.1605-29.358-17.162-29.77-17.781-1.2853-1.9307 0.26216-3.3447 6.5596-5.9952 3.1285-1.317 5.9964-2.6414 6.3728-2.943 0.53059-0.42515 0.68443-6.5092 0.68443-27.062v-26.513l-3.2854-2.0558c-3.4281-2.1451-3.5209-2.248-2.8662-3.1788 0.54374-0.77311 16.37-7.3753 17.68-7.3753 0.97742 0 1.0495 0.58836 1.1899 9.7075l0.14958 9.7078 4.6542 2.6898c2.5598 1.4796 6.2558 3.6186 8.2134 4.7543 10.116 5.8685 39.45 22.504 40.64 23.047 1.261 0.57464 3.5734-0.63138 28.551-14.891l27.179-15.517v-9.3657c0-9.9298 0.25478-11.006 2.3966-10.122 18.123 7.4757 18.613 7.7907 15.112 9.7196-0.95538 0.52599-2.329 1.4065-3.0522 1.9555l-1.3149 0.9988v53.484l3.1485 1.3831c1.7316 0.76097 4.6816 2.0588 6.5553 2.8834 3.4134 1.5025 4.3501 2.6373 3.747 4.54-0.17169 0.54148-3.9406 3.0437-8.3871 5.569-4.4415 2.5221-10.909 6.2279-14.372 8.2354-23.283 13.494-36.775 20.92-37.503 20.641-0.6951-0.26712-0.82621-1.9173-0.82621-10.407 0-7.4097 0.18187-10.237 0.68442-10.647 0.69198-0.56249 2.0068-1.3216 22.45-12.962l11.362-6.4696v-15.527c0-8.5395-0.20175-15.651-0.44823-15.804-0.24648-0.15281-6.7146 3.3114-14.373 7.6974-7.6589 4.3853-19.758 11.278-26.887 15.316l-12.962 7.3418-23.177-13.201c-12.747-7.2602-24.778-14.144-26.736-15.295-2.5938-1.5264-3.747-1.9392-4.252-1.5218-0.53508 0.44203-0.65978 4.0202-0.54751 15.694l0.14537 15.122 3.3668 2.0379c1.8518 1.1205 4.1924 2.4867 5.2018 3.0364 1.0093 0.54972 7.1993 4.0576 13.756 7.7958l11.921 6.7966-0.14833 10.452c-0.12498 8.7979-0.27841 10.47-0.96971 10.567-0.45184 0.0641-13.881-7.3803-29.842-16.54zm29.568-61.971c-11.745-6.7385-22.901-13.136-24.79-14.215l-3.4357-1.963 0.15038-8.8155 0.15034-8.8152 5.7494-2.3796c3.1621-1.3087 6.0573-2.388 6.4337-2.3986 0.50977-8e-3 0.68461 1.6244 0.68531 6.4212l5e-4 6.4396 14.884 8.4955c8.1862 4.6724 16.503 9.3948 18.481 10.495l3.5969 1.9994 36.925-20.989 0.0154-6.4396c0.0123-4.7906 0.19125-6.4347 0.70048-6.4178 0.37643 7e-3 3.1485 1.0696 6.1599 2.3493l5.4757 2.3269 0.15004 8.8082c0.11273 6.62-0.0225 8.9516-0.54754 9.3836-0.38376 0.31642-3.408 2.1154-6.7208 3.9975-3.3128 1.8826-6.7623 3.8474-7.6658 4.3653-14.286 8.198-33.95 19.297-34.426 19.431-0.3395 0.0995-10.227-5.3393-21.972-12.078z" stroke-width=".54782"/>
 </g>
 <g id="rank-general" class="rank" display="none">
  <path d="m309.22 628.23c-0.46649-1.2125-4.8421-13.922-9.4438-27.43-1.0645-3.1245-1.1073-3.1661-6.3501-6.1542-8.1485-4.6446-7.9196-4.0189-2.5697-7.0177 2.5462-1.4272 4.7542-2.7981 4.9067-3.0462 0.15232-0.24834-1.4328-3.9758-3.5228-8.2835-2.0897-4.3076-3.7328-7.8844-3.651-7.9483 0.0822-0.0639 3.576 1.5686 7.765 3.6282 4.189 2.0595 7.7579 3.7489 7.9309 3.7543 0.17284 6e-3 1.3969-1.9576 2.72-4.3622 1.323-2.4047 2.5473-4.3762 2.7201-4.3812 0.17295-6e-3 1.397 1.9588 2.7201 4.3636 1.3229 2.4046 2.5634 4.3762 2.7562 4.3811 0.1926 6e-3 3.7425-1.6869 7.8883-3.7592 4.1455-2.0724 7.6149-3.6989 7.7095-3.6148 0.0935 0.0841-1.538 3.6838-3.6282 7.999-2.09 4.3152-3.7035 8.0034-3.5851 8.1962 0.11826 0.19264 2.3198 1.5394 4.8921 2.9927l4.6767 2.6423-1.2636 0.9655c-0.69498 0.53103-3.4801 2.2-6.1889 3.7089l-4.9251 2.7436-2.9311 8.6453c-7.7716 22.923-8.0194 23.554-8.6262 21.976zm-48.499-52.727c-1.6456-0.98811-4.9168-2.91-7.2692-4.2709l-4.2767-2.4742 4.2767-2.435c2.3524-1.3391 15.208-8.7436 28.568-16.454 13.36-7.7105 25.051-14.415 25.981-14.899l1.6897-0.87965 29.237 16.792c16.081 9.2358 29.555 17.088 29.944 17.45 0.56293 0.52357-0.70201 1.4736-6.2221 4.6726-3.8107 2.2085-7.1889 4.0113-7.5068 4.0063-0.31794-6e-3 -10.694-5.8469-23.059-12.982l-22.481-12.973-22.821 13.165c-12.552 7.2406-22.877 13.145-22.945 13.122-0.0674-0.0248-1.4699-0.85176-3.1154-1.84zm-23.765-13.641c-3.6453-2.1546-6.6807-4.1639-6.745-4.465-0.16219-0.75806 44.753-26.614 45.653-26.281 1.1299 0.41879 12.605 8.6033 12.582 8.9739-0.0113 0.18139-8.0056 4.8889-17.765 10.461-9.7594 5.5722-19.726 11.302-22.147 12.733-2.4212 1.4308-4.5255 2.5776-4.6757 2.5485-0.15018-0.0287-3.2559-1.8158-6.9015-3.9704zm115.85-8.7648c-12.04-6.9723-21.894-12.839-21.897-13.036-3e-3 -0.1977 1.2002-1.231 2.6732-2.2961 5.7258-4.1411 9.7856-6.9282 10.092-6.9282 0.35681 0 0.2441-0.0641 26.4 15.021 10.323 5.9538 18.96 11.005 19.193 11.226 0.35095 0.33163-13.763 8.9199-14.374 8.7462-0.10757-0.0302-10.046-5.7602-22.087-12.733zm-135.6-2.6089c-3.74-2.1407-7-4.0782-7.2441-4.3057-0.48951-0.45564 0.85363-1.2656 24.109-14.538 8.8267-5.0377 17.737-10.146 19.8-11.352l3.7514-2.1928-3.2076-1.8215c-1.7642-1.0017-12.815-7.3156-24.557-14.031l-21.35-12.21-3e-3 -17.933-3e-3 -17.933 3.9442 2.5147c2.1692 1.3833 4.9846 3.1671 6.2562 3.9641l2.312 1.4491 0.0175 9.04 0.0175 9.0401 5.8311 3.335c43.966 25.146 59.958 34.395 59.943 34.67-9e-3 0.18138-4.6002 2.9534-10.2 6.16-5.6001 3.2064-19.682 11.277-31.294 17.935-11.612 6.6576-21.159 12.104-21.217 12.103-0.0575-7.9e-4 -3.165-1.7535-6.9052-3.8944zm146.61-13.945c-17.055-9.7957-31.178-17.983-31.384-18.193-0.20623-0.21069 2.2418-1.8783 5.4403-3.706 3.1982-1.8275 17.994-10.313 32.88-18.857l27.065-15.534v-17.885l3.1282-1.999c1.7205-1.0994 4.5455-2.9394 6.2778-4.0891 2.1325-1.4151 3.2328-1.8713 3.4081-1.4119 0.14197 0.37297 0.19369 8.4333 0.11448 17.912l-0.14387 17.234-23.665 13.594c-26.617 15.29-25.49 14.609-24.753 14.942 0.92106 0.41463 47.147 26.981 47.413 27.248 0.13709 0.13819-1.9063 1.433-4.541 2.8776-2.6346 1.4445-5.8786 3.3202-7.2089 4.1682-1.3303 0.8479-2.5543 1.5346-2.7201 1.5259-0.16573-0.01-14.256-8.0304-31.311-17.826zm-60.507-13.535c-3.3577-2.4713-6.1119-4.6496-6.1204-4.8406-0.0177-0.38353 11.093-8.6008 12.214-9.034 0.38604-0.1489 3.5497 1.8215 7.03 4.3788l6.3281 4.65-6.2761 4.5573c-3.4518 2.5066-6.4547 4.6079-6.6735 4.6697-0.21852 0.062-3.1446-1.9099-6.5019-4.3811zm-83.931 0.99213c-14.911-3.6214-21.802-5.2116-22.587-5.2116-0.44293 0-0.8055-0.22653-0.8055-0.50356 0-0.27721 1.7749-0.90452 3.9442-1.394 2.1691-0.48972 9.1199-2.1313 15.446-3.6478l11.501-2.7574 13.803 7.6134-1.8101 1.0988c-0.99581 0.60435-4.1362 2.3335-6.9787 3.8424l-5.1681 2.7436zm166.08-1.8246c-3.6556-2.0134-6.654-3.7839-6.6637-3.9346-0.0175-0.26161 1.0369-0.88077 8.414-4.9465 1.7954-0.98943 3.6312-2.0254 4.0802-2.302 0.75632-0.46646 3.3248 0.073 28.466 5.9682 2.0418 0.47877 3.5106 1.0455 3.264 1.2596-0.24669 0.21401-6.9359 1.9257-14.865 3.8037-7.9291 1.8781-14.784 3.5041-15.232 3.6135-0.44892 0.1093-3.8071-1.4484-7.4626-3.4619zm-120.61-22.581c-5.6616-3.2987-10.336-5.9976-10.388-5.9976-0.0508 0-3.8653-2.1914-8.4748-4.87l-8.3807-4.87-0.12943-9.2317-0.12938-9.2315 5.8648-2.3276c3.2254-1.2801 6.0303-2.3275 6.2327-2.3275s0.43676 2.9957 0.52078 6.6571l0.15265 6.6568 19.177 11c10.547 6.0497 19.175 11.125 19.173 11.278-2e-3 0.15346-0.92009 0.89449-2.04 1.6473-1.1201 0.75268-4.0228 2.7857-6.4506 4.5181-2.4281 1.732-4.5089 3.1375-4.6243 3.123-0.11546-0.0153-4.842-2.7254-10.504-6.024zm72.312 1.5893c-3.2912-2.4021-6.0498-4.5514-6.1302-4.7757-0.081-0.22428 8.5788-5.4226 19.243-11.552l19.389-11.144-0.25901-6.2299c-0.14226-3.4265-0.0601-6.3542 0.1843-6.5059 0.24398-0.15159 3.0849 0.82058 6.3134 2.1607l5.87 2.4364 0.14901 9.03 0.14879 9.03-18.902 10.868c-10.396 5.9777-19.154 10.909-19.462 10.959-0.30739 0.0498-3.252-1.8753-6.5434-4.2777zm-47.392-10.228c-10.806-6.228-21.822-12.565-24.481-14.082l-4.8341-2.7581-0.13898-9.0161-0.13924-9.0163 12.486-5.116 0.15224 6.6358 0.15246 6.6358 8.9765 5.1459c4.9369 2.8302 9.9555 5.7025 11.152 6.3831 1.197 0.68058 5.2973 3.0169 9.1124 5.1922 3.8148 2.175 7.2854 3.875 7.7126 3.7776 0.42701-0.0974 8.7496-4.7362 18.494-10.308l17.718-10.131 3e-3 -6.3434c1e-3 -3.489 0.1379-6.4797 0.30307-6.6459 0.16527-0.16632 3.0419 0.86192 6.3923 2.2854l6.0917 2.5878 0.14923 8.8106 0.14936 8.8107-24.602 14.141c-13.531 7.7778-24.737 14.185-24.902 14.238-0.16523 0.0538-9.1413-4.9986-19.947-11.226z" stroke-width=".54582"/>
 </g>
 <g id="unit-applied-sciences" class="unit" display="none">
  <path d="m297.6 425.24c-12.928-1.3492-28.872-5.8884-39.507-11.247-2.6334-1.3272-8.4359-4.8477-12.894-7.8232l-8.1055-5.4102-15.52-15.507-5.4147-8.0988c-9.2179-13.787-13.961-25.092-17.435-41.555l-1.8465-8.7507v-29.202l1.8465-8.7507c3.4739-16.463 8.2169-27.768 17.435-41.555l5.4147-8.0988 15.52-15.507 8.1055-5.4102c13.799-9.2098 25.114-13.949 41.591-17.42l8.758-1.8449h29.227l8.758 1.8449c16.477 3.4708 27.792 8.21 41.591 17.42l8.1055 5.4102 15.52 15.507 5.4147 8.0988c9.2179 13.787 13.961 25.092 17.435 41.555l1.8465 8.7507v29.202l-1.8465 8.7507c-3.4739 16.463-8.2169 27.768-17.435 41.555l-5.4147 8.0988-15.52 15.507-8.1055 5.4102c-13.783 9.1993-25.416 14.077-41.16 17.258l-8.3283 1.6825-10.746 0.40673c-5.9096 0.2237-13.69 0.0994-17.289-0.2762zm-23.113-18.945 0.91987-1.7178h9.3149l1.7082-3.6503c0.93961-2.0076 2.3598-4.6448 3.1556-5.8602l1.4476-2.21-2.3091-3.6551-2.3094-3.6551 0.52327-2.3804 0.52325-2.3804-3.1491-5.282c-1.7321-2.9051-3.5265-5.282-3.988-5.282-0.46111 0-3.2711 2.4304-6.2442 5.4008l-5.4053 5.4008-3.0147 5.9809c-3.5072 6.9582-5.7865 14.112-5.7865 18.158v2.8502h13.694zm85.102-1.244c0-4.3094-3.8146-15.686-6.9257-20.658-3.0481-4.8698-11.836-14.172-13.39-14.172-0.56481 0-2.4335 2.5125-4.1524 5.5833l-3.1251 5.5833 0.84204 1.5025 0.84162 1.5025-2.6087 4.5566-2.6092 4.5566 1.3471 1.487c0.74074 0.81784 2.1532 3.3087 3.1389 5.5353l1.7923 4.0483h10.22l1.0736 1.7178 1.0739 1.7178h12.481zm-117.2-18.517 2.0774-5.5213-1.9123-1.4412c-1.0514-0.79268-2.4917-1.2191-3.1997-0.94756l-1.2878 0.49369-9.879-11.001 6.1741-1.5567c3.396-0.85616 7.6758-1.9417 9.511-2.4124 3.8169-0.97871 3.4859-1.1355 4.5507 2.1563 0.44894 1.3876 1.2263 2.6596 1.7275 2.8265 0.50106 0.16694 2.5368-1.6362 4.5232-4.0069l3.6121-4.3104-0.55466-1.7463c-0.30544-0.96049-1.6388-2.3064-2.9634-2.9908-1.3251-0.68448-2.6038-1.9364-2.8423-2.782-0.23846-0.8456-1.2673-3.6127-2.2862-6.149l-1.8527-4.6116 4.541 0.51583c2.4971 0.28371 6.9582 0.76623 9.9133 1.0723l5.3728 0.55644v3.2739c0 1.8007 0.29505 3.4561 0.65546 3.6787 0.36026 0.22262 3.081-0.9564 6.0452-2.62l5.3899-3.0248-0.53258-1.8384c-0.29255-1.0111-1.2724-2.4801-2.1771-3.2644l-1.6445-1.426v-13.912l17.342 8.695-0.62057 1.4578c-0.34117 0.8018-0.66499 2.2308-0.71937 3.1756l-0.0988 1.7178 4.6408-0.25278c7.6731-0.41797 9.4547-2.1964 5.942-5.9322l-1.8814-2.0012 4.6096-14.802c2.5354-8.1413 4.8344-15.261 5.1092-15.822 0.27476-0.56076 2.7419 6.1569 5.4825 14.928l4.9834 15.948-1.7637 1.8756c-0.96999 1.0316-1.7637 2.5197-1.7637 3.3069v1.4313l2.0436 0.51242c1.1238 0.28184 3.9285 0.57907 6.2323 0.66053l4.1888 0.1481-0.1878-1.2883c-0.10343-0.70858-0.42061-2.2562-0.70453-3.4392l-0.51671-2.1508 6.3436-3.1764c3.489-1.747 7.4347-3.5908 8.7676-4.0972l2.424-0.92082-0.39438 6.8066-0.39437 6.8066-1.4365 1.4353c-0.79009 0.78943-1.4945 1.9875-1.5656 2.6623-0.0716 0.67484-0.16762 1.5998-0.21486 2.0554-0.0477 0.45565 2.1226 2.1571 4.8214 3.781l4.9073 2.9525 1.0023-1.2065 1.0023-1.2064-0.51558-2.5745-0.51508-2.5745h0.80437c0.44214 0 4.7137-0.42494 9.492-0.94431 4.7782-0.51937 8.8628-0.76921 9.0773-0.5552 0.21397 0.21401-0.73862 3.0312-2.1176 6.2603l-2.5065 5.8712-1.8159 0.67109c-0.99851 0.36911-2.2514 1.6268-2.7841 2.7948l-0.96871 2.1238 3.6371 4.1283c2.0003 2.2706 4.0741 4.1283 4.6081 4.1283 0.53406 0 1.352-1.1595 1.817-2.5767 0.46536-1.4172 0.90346-2.6832 0.97405-2.8135 0.0711-0.13026 4.3986 0.81222 9.6176 2.0944l9.4895 2.3312-4.7067 5.3232-4.7062 5.3231-1.4877-0.38863c-0.81811-0.21375-2.3546 0.31334-3.4142 1.1713l-1.9266 1.56 2.132 5.5828 2.1324 5.5828 1.1334-0.26236c0.62334-0.1443 1.8343-1.1956 2.6908-2.3362l1.557-2.0738 1.6626 1.0374 1.6629 1.0374 4.0869-4.6295c6.0355-6.8367 11.024-14.19 15.201-22.405 3.5588-7 8.6022-19.754 7.8112-19.754-0.20865 0-1.9865 2.3648-3.951 5.2551l-3.5719 5.2551-0.7929-1.1754c-0.43586-0.64647-1.8064-3.1079-3.0454-5.4698l-2.2523-4.2944 0.17747-3.6503 0.1777-3.6503h-11.254v1.3186c0 0.7252 0.575 2.1955 1.278 3.2673l1.278 1.9488-7.3332 5.4267c-4.0334 2.9847-7.4614 5.2828-7.6178 5.1068-0.15641-0.17594-0.66131-2.9966-1.1223-6.2682l-0.83766-5.9483 1.1547-2.2111c1.8496-3.541 1.4609-4.101-4.1626-5.9985l-5.3287-1.7979-0.72053 0.72029-0.721 0.72028 0.91568 2.4062c0.50324 1.3234 0.80792 2.4941 0.67649 2.6016-0.13143 0.10748-4.2332 1.3745-9.1146 2.8156l-8.8759 2.6202 0.37133-1.0022c0.20404-0.55119 0.88393-3.611 1.5113-6.7997l1.1409-5.7975h0.98657c0.98336 0 3.6084-4.0708 2.9257-4.5378-0.19779-0.13526-2.1651-1.6818-4.3724-3.4368-2.2072-1.755-4.4313-3.1909-4.9426-3.1909h-0.93006v6.2643l-6.5768-0.55547c-3.6175-0.30551-7.8817-0.55547-9.4765-0.55547h-2.9l3.3219-5.2204c1.8273-2.8712 4.2162-5.6734 5.3092-6.2269 1.0931-0.55357 2.3542-1.5946 2.8028-2.3133l0.81571-1.3068-2.794-4.4907c-1.5368-2.4699-3.1313-4.4907-3.5435-4.4907-0.41223 0-1.1903 0.96625-1.7287 2.1472s-1.2697 2.1472-1.6247 2.1472c-1.01 0-14.897-6.0354-15.695-6.8213l-0.71354-0.70258 10.2-7.8416 1.6311 0.39333c0.8971 0.21634 2.1353 0.0628 2.7518-0.34129l1.1207-0.73462-1.0542-5.7182-1.0547-5.7182h-1.0075c-0.55402 0-1.7208 0.78712-2.5919 1.7492l-1.5845 1.7492-5.6623-5.6142c-3.1142-3.0878-6.0516-5.6142-6.5274-5.6142-0.47573 0-3.1615 2.319-5.9686 5.1533-5.3892 5.4414-6.4428 5.94-8.1666 3.865-0.58846-0.70858-1.5591-1.2883-2.157-1.2883h-1.0867l-1.0614 5.6214c-0.58412 3.0918-0.87348 5.8094-0.64345 6.0393 0.23015 0.22987 1.779 0.52502 3.4422 0.65589l3.0241 0.23794 4.4334 3.7087c2.4383 2.0398 4.2871 3.8547 4.1084 4.0332-0.36522 0.36523-15.994 7.188-16.465 7.188-0.16675 0-0.70736-1.1595-1.2019-2.5767-0.49457-1.4172-1.2091-2.569-1.5885-2.5597-0.3789 9e-3 -1.983 2.2274-3.5643 4.929l-2.8747 4.912 0.80718 1.2784c0.44386 0.70312 1.6445 1.4804 2.668 1.7274l1.8613 0.44898 3.038 5.0441c1.6709 2.7743 2.8989 5.1833 2.7287 5.3534-0.17033 0.1701-4.2491 0.56722-9.0639 0.88249l-8.754 0.5732v-1.4739c0-0.81065-0.40942-2.2385-0.90994-3.173l-0.91042-1.6991-4.2475 3.5533c-4.6869 3.9209-5.1387 5.249-2.4296 7.1448l1.8179 1.2722 1.2657 6.1454c0.69573 3.38 1.1186 6.2921 0.93903 6.4715-0.1796 0.17934-3.9846-0.77627-8.4562-2.1236l-8.1295-2.4496 0.20666-2.454c0.11388-1.3497 0.0358-2.9196-0.17267-3.4886l-0.38004-1.0346-10.829 3.8918 0.29871 2.0948c0.16426 1.1521 0.68059 2.5601 1.147 3.1288l0.84793 1.034-0.96744 6.2305c-0.53233 3.4268-1.0518 6.3148-1.1552 6.4178-0.16518 0.16508-13.097-9.3082-14.17-10.38-0.22984-0.22947 0.2393-1.4191 1.0424-2.6436 0.80292-1.2245 1.3252-2.631 1.16-3.1254l-0.29984-0.89903-10.76-0.2444-0.4843 1.9306c-0.26672 1.0618-0.25412 2.5303 0.0286 3.2634l0.51189 1.3328-3.0757 6.1025-3.0759 6.1025-2.6192-4.023c-1.4406-2.2127-2.7868-3.8555-2.9918-3.6507-0.73302 0.73242 6.5602 17.137 10.552 23.735 2.2375 3.698 6.4513 9.5572 9.3642 13.02l5.2963 6.2967 3.5217-0.49651 1.4652 2.2341c0.80561 1.2287 1.8735 2.098 2.3727 1.9318 0.49915-0.16626 1.8424-2.7869 2.9851-5.8236zm76.802-4.7168 2.1132-3.865h3.7564l3.0824-5.5076c1.6956-3.0292 3.0825-6.0897 3.0825-6.8011v-1.2935l-11.605-3.9878-18.912-6e-3 -6.1886 1.9384c-3.4039 1.0661-6.3972 2.2759-6.6527 2.6884-0.25499 0.41254 1.1293 3.4994 3.0763 6.8596l3.5402 6.1095h3.9123l2.2672 3.865 2.2668 3.865h14.147zm98.375-47.34c0.70577-2.8088 0.38511-3.129-2.426-2.424-2.6139 0.65552-2.8734 1.8636-0.74624 3.477 2.1331 1.6178 2.5352 1.4843 3.1722-1.053zm-211.14-0.61659 0.27838-1.4345-1.3902-0.53295c-1.8683-0.71636-2.4525 0.0305-1.7513 2.2385 0.65729 2.069 2.4417 1.9001 2.8631-0.27105zm35.181-20.8 4.513-1.2909v-1.0594c0-0.58269-1.2606-2.9875-2.8017-5.344l-2.8021-4.2846-3.7895-0.54074-5.3462-9.3365h-6.8228l-4.8399 10.778-2.0993 0.95575-2.0994 0.95575-1.6313 4.795c-0.89721 2.6372-1.3979 5.0283-1.1124 5.3136 0.28546 0.28523 3.1663 0.78487 6.4016 1.1103 6.699 0.67389 15.816-0.16019 22.43-2.052zm162.08 1.2771 3.2651-0.90591-0.59571-1.8807c-0.32798-1.0344-1.3-3.5233-2.1602-5.531l-1.5644-3.6503h-3.2899l-1.9355-5.1716c-1.0646-2.8444-2.1757-5.3183-2.469-5.4977-0.29302-0.17939-1.8671-0.46105-3.4982-0.62592l-2.965-0.29976-5.8674 9.8772h-3.6909l-5.4659 9.0183 1.1502 1.1714c0.63252 0.64426 3.6063 1.8728 6.6089 2.7302l5.4588 1.5588 6.877 0.0564c3.7825 0.031 8.3461-0.35126 10.142-0.84951zm13.661-4.882 2.5782-1.503-0.57722-6.0122c-0.31761-3.3067-1.0975-8.5073-1.7329-11.557l-1.1557-5.5447-1.5415-1.1261-1.5415-1.1261-4.8837 4.8798 3.6471 9.2451-0.87616 1.9216-0.87617 1.9216 1.8934 5.2012c1.0413 2.8607 2.0271 5.2016 2.1906 5.202 0.16352 4.2e-4 1.4575-0.67561 2.8755-1.5023zm-210.76-4.2944 1.8513-4.9386-0.99793-1.6006-0.99842-1.6006 1.9161-5.1184 1.9156-5.1184-1.8381-1.8364-1.8376-1.8364-0.95846 0.95767c-1.8962 1.8942-5.0514 21.764-3.9228 24.703 0.2804 0.73035 1.0747 1.3279 1.7646 1.3279h1.2545zm55.685-6.9887c4.9003-6.0921 10.497-19.521 10.497-25.185v-1.5373h-11.089l-0.69683 1.2444-0.6973 1.2444-11.686 0.51728-2.624 4.7395-2.624 4.7395 2.6527 4.4946 2.6522 4.4946-0.4873 2.4342-0.48729 2.4342 2.7242 4.4233 2.724 4.4233 3.2925-2.6438c1.8111-1.4541 4.4434-4.0744 5.8495-5.8228zm107.62 2.927 2.6947-4.7059-1.6864-3.0106 5.9469-10.624-0.79387-0.49011c-0.43637-0.26957-1.6141-2.2343-2.6172-4.3661l-1.8234-3.8759h-11.815l-1.0703-1.2883-1.0698-1.2883h-10.327l0.59842 4.5092c0.77579 5.8447 4.6104 14.901 8.621 20.36 2.9927 4.0734 8.7251 9.486 10.047 9.486 0.33029 0 1.8135-2.1176 3.2954-4.7059zm-54.033-37.968 6.2282-2.3066 0.33969 1.0183c0.37165 1.114 4.16 1.4107 4.7758 0.37413 0.21053-0.35429 0.66493-3.1165 1.0096-6.1382l0.62647-5.4941-1.6032 0.45078c-0.88197 0.24794-2.1787 0.59453-2.8817 0.77022l-1.2785 0.31943-4.0631-7.73c-2.2343-4.2515-4.0768-7.9308-4.0943-8.1761-0.016-0.24538 2.9668-0.30892 6.631-0.14119l6.6618 0.30493 0.9545 1.2148c0.52488 0.66815 1.7755 1.2148 2.7792 1.2148h1.825l2.3619-4.5092c1.2988-2.48 2.3693-4.8956 2.3784-5.368l0.0153-0.85889-2.7938 0.27946c-1.5367 0.1537-2.8272 0.1537-2.868 0-0.51747-1.9485-2.0396-17.887-1.7083-17.887 1.7636 0 12.098 4.7711 12.098 5.5853 0 0.56073 0.75511 1.7023 1.6779 2.5368l1.6781 1.5172 3.8813-3.3166c2.1347-1.8242 3.8941-3.7328 3.9095-4.2416 0.0316-0.98317-9.882-4.6049-18.454-6.7428-2.837-0.70755-9.703-1.7091-15.258-2.2256l-10.1-0.93911-9.787 0.90998c-5.3827 0.50048-13.441 1.8361-17.907 2.968-8.5018 2.1548-17.007 5.4191-17.007 6.5273 0 0.35732 1.663 2.0112 3.6955 3.6753l3.6955 3.0256 1.4621-0.8176c0.80424-0.44968 1.4622-1.3762 1.4622-2.0588v-1.2412l4.0833-1.8078c2.2457-0.99427 4.953-2.2208 6.016-2.7255 1.063-0.50476 2.1896-0.66119 2.5035-0.34762 0.31378 0.31355 0.0738 4.4736-0.53585 9.2445l-1.1064 8.6744-5.1024-0.74823-0.36967 0.96267c-0.45793 1.1925 4.6575 10.788 5.7512 10.788 0.43728 0 1.5689-0.773 2.5144-1.7178l1.7193-1.7178h6.4471c3.546 0 6.4323 0.28987 6.4141 0.64416-0.0171 0.35429-1.8653 3.9858-4.1046 8.07l-4.0716 7.4258-2.2915-1.1996c-1.2603-0.65975-2.4856-0.88558-2.7229-0.50184-0.23733 0.38375 0.0125 3.2828 0.55333 6.4423l0.98472 5.7446h1.8026c0.99143 0 2.1976-0.39476 2.6805-0.87725l0.87811-0.87725 5.5262 2.1236c3.0392 1.168 5.6008 2.1425 5.6918 2.1656 0.0912 0.0231 2.9684-0.99599 6.3939-2.2646zm-43.106-0.48475c-0.0381-3.3243-2.9829-12.782-5.3815-17.29-3.3409-6.2793-11.547-15.27-16.683-18.277l-3.739-2.1893-1.9206 0.51724c-1.0559 0.28448-4.2413 2.6335-7.078 5.22l-5.1577 4.7027 2.3324 1.5491-0.95141 0.5875c-0.52326 0.32312-0.95136 2.0638-0.95136 3.8682v3.2806l2.5462 1.0537c3.2429 1.3421 10.176 8.7104 11.343 12.055l0.89294 2.5592h11.806l1.8403 3.4355h11.114zm85.975-0.64417 0.92017-1.7178h11.939l1.6642-3.2594c2.0135-3.9437 8.0829-9.6809 11.909-11.258l2.7938-1.1512v-3.2806c0-1.8044-0.40562-3.5311-0.90128-3.8373l-0.90129-0.5566 1.8582-2.237-4.9704-4.4728c-2.7341-2.46-5.8167-4.872-6.851-5.36l-1.88-0.88715-3.96 2.3188c-11.559 6.7682-22.796 24.019-22.796 34.996v2.4208h10.255z" stroke-width=".85926"/>
 </g>
 <g id="unit-espionage" class="unit" display="none">
  <path d="m298.27 425.8c-11.285-1.0937-25.648-5.137-36.468-10.266-24.818-11.765-42.941-29.614-54.827-53.999l-5.338-10.951-2.4835-9.3485c-1.3659-5.1417-2.9151-13.887-3.4426-19.435l-0.95914-10.087 0.95914-10.087c0.52754-5.5476 2.0767-14.293 3.4426-19.435l2.4835-9.3485 5.338-10.951c17.762-36.438 52.399-60.466 92.698-64.303l10.079-0.95984 10.079 0.95984c40.299 3.8377 74.936 27.865 92.698 64.303l5.338 10.951 2.4835 9.3485c1.3659 5.1417 2.9151 13.887 3.4426 19.435l0.95914 10.087-0.95914 10.087c-3.8348 40.327-27.839 74.982-64.256 92.768l-10.943 5.3444-9.4355 2.4944c-5.1895 1.372-13.818 2.9209-19.175 3.4422-10.769 1.0479-10.387 1.0488-21.712-0.0489zm-8.9838-14.029 7.5599-4.1936-0.67655-1.0045c-0.94991-1.4104-38.365-23.028-39.81-23.001-0.65101 0.0122-3.6174 1.5424-6.592 3.4005l-5.4083 3.3782-5.2167-5.1226c-6.9714-6.8456-12.125-13.627-17.411-22.909-4.3054-7.5605-9.959-22.788-10.52-28.336l-0.28562-2.8237 11.8-7.1923 0.2644-23.034c0.14542-12.669-0.0758-23.358-0.49166-23.753-0.41584-0.39571-4.1453 1.2509-8.2876 3.6591l-7.5315 4.3786-2.6369 10.259 4e-3 17.713 4e-3 17.713 1.8299 6.8884c2.5905 9.7515 7.9013 22.325 13.247 31.365l4.582 7.7476 8.32 8.8576c8.7069 9.2695 13.978 13.544 24.622 19.966 5.7727 3.4831 21.645 10.225 24.092 10.234 0.54084 2e-3 4.3853-1.8837 8.5432-4.1902zm56.101 1.9238c16.711-6.2944 29.853-14.997 41.859-27.718l8.5462-9.0549 4.582-7.757c8.9085-15.081 13.775-29.684 15.519-46.565l0.95922-9.2862-0.9379-9.8508c-0.51584-5.4179-1.1202-10.538-1.3429-11.379-0.22274-0.84045-0.66488-2.7023-0.98252-4.1375l-0.57753-2.6094-4.6764-2.6864c-2.572-1.4775-6.1145-3.5499-7.8722-4.6052l-3.1958-1.9188v48.291l11.308 6.6366-0.28887 2.3838c-1.1598 9.571-9.8033 29.428-16.943 38.922-5.6744 7.5463-14.758 17.092-16.264 17.092-0.7292 0-3.5772-1.3285-6.329-2.9522s-5.4098-2.9522-5.9068-2.9522c-1.1218 0-36.212 20.43-38.623 22.487l-1.7551 1.4972 7.6551 4.2287c4.2103 2.3258 7.9769 4.2359 8.3702 4.2447 0.39328 9e-3 3.4966-1.0317 6.8962-2.3123zm6.5342-39.002 31.571-18.205-0.2417-12.725-0.2417-12.725-5.4083-3.2276c-2.9746-1.7752-5.7402-3.2448-6.1458-3.2659-0.40562-0.0211-0.73749 5.1836-0.73749 11.566v11.604l-29.985 17.425c-16.492 9.5839-30.465 17.425-31.051 17.425-1.0202 0-24.224-13.201-25.737-14.642-0.74623-0.71081 9.4001-7.0074 11.292-7.0074 0.57327 0 4.0393 1.7292 7.7024 3.8426l6.6601 3.8426 47.381-27.593-0.26073-28.144-0.26072-28.144-19.667-11.48c-10.817-6.3143-19.999-11.285-20.404-11.047-0.40562 0.2385-0.73749 9.4552-0.73749 20.482v20.048l5.9 4.2042v12.244l-5.4968 3.1595c-3.0232 1.7377-5.9562 3.1595-6.5178 3.1595s-3.398-1.361-6.3032-3.0244l-5.2822-3.0244v-13.316l4.9167-2.2418v-56.957l6.6916-4.1386 60.667 35.174 0.53848 31.387 3.1724 1.8116c1.7448 0.99637 4.6105 2.6716 6.3682 3.7228l3.1958 1.9112v-46.909l-36.137-21.076c-19.876-11.592-36.473-21.25-36.884-21.464-0.41037-0.2133-5.6097 2.388-11.554 5.7807l-10.808 6.1685v30.851l-12.537 7.1371c-6.8956 3.9254-12.866 7.6322-13.268 8.2372-0.40178 0.60507-0.51436 13.278-0.25016 28.162l0.48033 27.061 1.6673 1.2301c2.4914 1.8381 3.4357 1.5952 11.187-2.877l7.1184-4.107-5.214-4.1605v-36.419l6.2327-3.6486c3.428-2.0068 6.6764-3.6486 7.2187-3.6486 0.85443 0 6.2152 8.7309 6.2152 10.122 0 0.27923-1.5488 1.4221-3.4417 2.5398l-3.4417 2.0321 0.0151 10.612c8e-3 5.8365 0.34015 11.088 0.7375 11.669 0.73423 1.0746 17.638 11.243 18.69 11.243 0.31605 0 4.6901-2.3248 9.7202-5.1663l9.1456-5.1663 0.0208-11.831 0.0208-11.831-6.6698-3.5946 3.0671-5.3439c1.6869-2.9391 3.5195-5.2201 4.0724-5.0688 0.55292 0.15126 3.7657 1.8249 7.1395 3.7192l6.1342 3.4442 0.0117 18.35 0.0117 18.35-32.628 18.88-13.465-8.0052-13.701 7.9478c-7.5356 4.3713-14.204 7.9478-14.82 7.9478-0.61531 0-5.1033-2.2672-9.9733-5.0381l-8.8545-5.0381 0.25812-34.979 0.25813-34.979 25.567-14.935 0.29415-6.7864c0.16178-3.7325-0.0595-7.116-0.49167-7.519-0.43219-0.40295-9.3039 4.149-19.715 10.115l-18.929 10.848 0.0175 43.418 0.0175 43.418 73.223 42.527 5.5454-3.0584c3.05-1.6821 19.752-11.251 37.117-21.263zm-96.745-130.71 19.667-11.489 0.2884-7.1089 0.28839-7.1089 4.6871-1.3929c2.5779-0.76611 7.3156-1.9805 10.528-2.6987l5.8412-1.3058h26.55l5.8412 1.3058c3.2126 0.71818 7.9504 1.9326 10.528 2.6987l4.6871 1.3929 0.28839 7.0628 0.2884 7.0628 19.667 11.535c10.817 6.3444 19.999 11.568 20.404 11.609 0.40563 0.0403 0.7375-4.0728 0.7375-9.1404v-9.2138l-4.6708-4.3649c-10.49-9.8028-28.78-19.773-43.021-23.452-4.3267-1.1178-12.402-2.4948-17.946-3.0601l-10.079-1.0278-10.079 1.0278c-23.182 2.364-44.112 11.412-60.475 26.143l-5.1625 4.6476v9.2573c0 5.0915 0.33187 9.2241 0.7375 9.1836 0.40562-0.0405 9.5875-5.2437 20.404-11.563z" stroke-width=".98369"/>
 </g>
 <g id="unit-black-ops" class="unit" display="none">
  <path d="m282.57 422.5-12.758-2.7453-29.442-14.826-27.489-27.599-6.3393-12.795c-6.64-13.402-12.298-32.534-12.298-41.583v-5.3231l19.628-12.112 0.141-12.832 18.372-11.319c10.104-6.2254 18.905-11.319 19.557-11.319 0.65209 0 1.1856 4.7976 1.1856 10.661v10.661l-16.209 12.875 4.179 3.3938c2.2984 1.8666 4.168 4.5805 4.1545 6.0309-0.0123 1.4505-4.6506 7.5301-10.305 13.51s-12.408 13.274-15.009 16.208l-4.7287 5.3354 3.5547 7.9058c1.9551 4.3482 4.1025 7.9058 4.772 7.9058 0.66956 0 8.668-7.5113 17.774-16.692l16.557-16.692 9.0689 8.5445 17.032-16.764 22.59 25.805-27.914 29.977v8.4967l4.0271 2.5223 4.0272 2.5223-5.99 7.5849c-3.2944 4.1717-5.99 8.5231-5.99 9.6697v2.0848l14.721 4.0886 21.428-10.5 18.297 10.245 8.5982-2.0965c4.729-1.153 9.3796-2.8018 10.335-3.6642l1.7364-1.5678-6.2463-8.4948-6.2464-8.4949 4.0193-2.7007 4.0194-2.7007v-7.4826l-63.791-66.833-10.795-8e-3v-71.635l5.3236-5.5728 5.3237-5.5728 2.411-42.763c1.3261-23.52 2.4635-46.705 2.5276-51.523l0.11654-8.7598 3.4801 3.7402 6.1336 49.213c3.3735 27.067 6.1236 51.287 6.1112 53.823l-0.0245 4.6107-3.9256 5.0051-3.9256 5.0051v28.227l60.34 62.777 3.8428-3.4449c2.1136-1.8947 4.6787-3.4449 5.7003-3.4449 1.0216 0 8.4377 6.6437 16.48 14.764 8.0426 8.1201 15.615 14.764 16.828 14.764h2.2049l3.212-8.2007 3.212-8.2007-2.4236-3.0749c-1.3327-1.6912-7.5021-7.8404-13.709-13.665l-11.286-10.59v-9.2228l6.8698-3.8734-16.684-14.346v-10.672c0-5.8703 0.40054-10.673 0.89008-10.673 0.48947 0 9.7639 5.3762 20.61 11.947l19.719 11.947v12.887l14.093 7.5097-1.2748 11.491c-0.70121 6.3201-2.9758 17.014-5.0547 23.764l-3.7798 12.273-7.5358 11.669c-4.1447 6.418-12.242 16.281-17.995 21.918l-10.459 10.249-26.68 14.061-30.268 7.7638-12.935-0.15625c-7.1143-0.0861-18.676-1.3919-25.693-2.9018zm45.51-122.22-12.393-11.087 12.027-12.445v-29.638l-4.5642-4.3002-4.5642-4.3002 0.61215-5.3933c0.33675-2.9664 2.9279-26.614 5.7582-52.55 2.8302-25.936 5.7961-48.919 6.5906-51.074l1.4447-3.9166 1.2349 14.656c0.67919 8.061 2.294 31.409 3.5886 51.884l2.3538 37.228 10.523 12.158 1.163 34.941 1.163 34.941-12.546-0.012z" stroke-width="1.9657"/>
 </g>
 <g id="unit-transport" class="unit" display="none">
  <path d="m303.63 425.8c-7.9763-0.52524-21.923-2.7812-23.864-3.8604l-0.59522-0.33092 15.053-8.2209 15.053-8.2209 3.64 1.9718c2.002 1.0844 8.7873 4.7759 15.078 8.2033l11.438 6.2315-0.62676 0.34851c-1.046 0.58149-11.633 2.6606-16.139 3.1694-4.9918 0.56361-15.372 0.95004-19.039 0.70856zm37.975-15.205c-6.3197-3.6077-11.791-7.0082-12.158-7.5567l-0.66705-0.99732-0.13454-22.209-0.13458-22.209 0.60463-1.8203 0.60474-1.8203 3.4048-1.992c4.0614-2.3764 19.572-11.261 29.729-17.028l7.2789-4.1332h2.5673l4.6001 2.6478c7.524 4.3307 25.354 14.547 31.16 17.855l5.406 3.0794 0.14338 1.4655 0.14339 1.4657-2.1116 4.3716c-5.299 10.97-11.905 20.271-20.964 29.517-9.6046 9.8028-18.352 16.292-29.702 22.034-3.2732 1.6558-6.4756 3.2088-7.1164 3.4507l-1.1651 0.43998zm-84.279 2.7461c-11.999-6.1674-20.212-12.246-29.858-22.101-6.6313-6.7746-11.794-13.352-15.998-20.38-2.9479-4.9284-7.2758-13.531-7.7441-15.393l-0.26592-1.0573 6.014-3.4763c3.3076-1.9121 12.567-7.2179 20.576-11.791l14.562-8.3146h2.7622l9.4417 5.449c5.1929 2.997 12.192 7.0226 15.553 8.9458 3.3611 1.9231 8.1175 4.6719 10.57 6.1084l4.4584 2.6118 0.5882 1.1673 0.58822 1.1675 0.014 45.109-0.68069 1.3076-0.68065 1.3074-5.7831 3.2894c-3.1807 1.8092-8.205 4.6776-11.165 6.3743-2.9602 1.6967-5.6044 3.079-5.8762 3.0716-0.27181-8e-3 -3.4557-1.5355-7.0755-3.396zm30.097-91.115c-11.37-6.5436-20.942-12.263-21.272-12.711l-0.59859-0.81331v-48.283l0.82266-0.92515c0.4525-0.5089 4.7362-3.1387 9.5194-5.8442 4.7832-2.7055 12.081-6.8635 16.218-9.2402 4.1368-2.3764 8.7416-5.0138 10.233-5.861 1.4912-0.84695 3.1778-1.8646 3.7478-2.2612 0.57006-0.39657 1.7826-0.71946 2.6946-0.71765l1.6583 3e-3 14.103 8.0785c25.269 14.475 26.757 15.353 27.353 16.13l0.58812 0.76773 0.0152 24.114 0.0151 24.114-0.82261 0.92105c-0.4525 0.50653-3.7843 2.6101-7.404 4.6743-3.6197 2.0642-12.68 7.2502-20.134 11.524-7.4541 4.2742-14.118 7.8738-14.808 7.9989l-1.2552 0.22791zm38.537-3.5315c8.2736-4.7129 15.307-8.8035 15.629-9.0902l0.58663-0.52145-10.917-6.2884c-6.0043-3.4588-11.345-6.5123-11.869-6.7859-0.52353-0.27364-3.025-1.7105-5.5588-3.193l-4.607-2.6955-0.65283 0.24875c-0.35908 0.13688-5.2668 2.9091-10.906 6.1606-5.6394 3.2513-12.845 7.4049-16.014 9.2298l-5.7603 3.3184 0.58924 0.53685c0.48423 0.44127 10.008 5.9737 18.453 10.72 1.0342 0.5812 4.6277 2.6462 7.9855 4.5892l6.1051 3.5324 0.94633-0.59623c0.52045-0.3277 7.7156-4.4521 15.989-9.165zm-122.57-1.3213-0.12365-15.731-1.5286-0.14635-1.5286-0.14655 0.29305-1.9548c0.54687-3.6467 2.0055-11.631 2.1502-11.768 0.0796-0.0755 6.4728-3.8342 14.208-8.3538l14.065-8.2174h2.1919v-7.9384c0-4.3662 0.0899-7.9384 0.19898-7.9384 0.72438 0 7.3579 3.9462 8.2919 4.9328l1.1461 1.2107 0.16035 4.8667 0.16025 4.8666h2.735v-22.393l1.2673-0.82795c0.69713-0.45544 5.4863-3.2446 10.643-6.1982l9.3751-5.3702 0.0523-11.461 0.0523-11.461 0.81104-1.2299c0.79364-1.2033 3.0014-2.5831 15.877-9.9226 3.4904-1.9896 6.4161-3.6815 6.5015-3.76 0.0857-0.079-1.8186-2.3893-4.2309-5.1351l-4.386-4.9928 0.10647-0.76813c0.059-0.42239 2.1138-8.6481 4.5672-18.279 2.4533-9.6312 7.7797-30.645 11.837-46.697 4.0568-16.052 7.5545-29.385 7.7728-29.629l0.39677-0.44363v132.74l-1.2928 0.89248c-0.71097 0.49085-5.8409 3.477-11.4 6.6358-5.5588 3.1588-12.54 7.1491-15.513 8.8674-2.9734 1.7183-9.161 5.2834-13.75 7.9226l-8.3442 4.7984v60.49l0.65403 0.5393 0.65405 0.53928 5.6582-3.2942 5.0138 2.8577 5.0138 2.8579-0.41453 0.41168c-0.22797 0.22646-3.7561 2.296-7.8401 4.5988l-7.4256 4.1872-11.656-6.728v-32.473h-2.8206v20.11l-0.63502 1.5026-0.63502 1.5026-3.9887 2.2181c-2.1938 1.2198-4.1292 2.2181-4.3009 2.2181-0.17177 0-0.31227-3.2571-0.31227-7.238v-7.238h-5.171v16.603l-0.71784 1.0181c-0.57938 0.8216-8.2568 5.7272-8.9633 5.7272-0.10495 0-0.1908-5.2534-0.1908-11.674v-11.674h-5.171v25.585l-1.0704 1.0233c-0.58863 0.56289-2.7012 1.9374-4.6946 3.0546l-3.6245 2.0315zm207.42 13.636c-1.9392-1.1476-4.0017-2.6154-4.5834-3.2614l-1.0577-1.1749v-25.164h-5.1548l-0.12565 11.651-0.12556 11.651-3.8842-2.224c-2.1363-1.2233-4.146-2.4834-4.4659-2.8006l-0.58164-0.57632-0.23502-8.7337-0.23508-8.7337h-5.171l-0.12972 7.1213c-0.0716 3.9166-0.23647 7.1213-0.36696 7.1213-0.55452 0-7.1055-3.8759-7.9649-4.7125l-0.94016-0.91514-0.23508-10.845-0.23505-10.845-3.0556-0.29264-8e-3 16.257-8e-3 16.257-11.801 6.7605-7.3709-4.2381c-4.054-2.3309-7.5547-4.4128-7.7793-4.6266l-0.40855-0.38854 1.9803-1.0037c1.0892-0.55183 3.358-1.841 5.0416-2.8648l3.0613-1.8613 2.7027 1.5993 2.7027 1.5994 0.77335-0.43004 0.77334-0.42983v-60.544l-14.69-8.4298c-8.0796-4.6364-19.238-11.028-24.797-14.203l-10.107-5.7729-0.11909-67.187c-0.0658-36.953 0.0133-67.056 0.17535-66.895 0.16191 0.16089 1.4378 4.7671 2.8353 10.236 5.2946 20.72 21.788 85.851 21.788 86.039 0 0.10804-1.9943 2.4603-4.4316 5.2278-2.4374 2.7672-4.3498 5.163-4.2498 5.3237 0.1007 0.16076 2.8876 1.8334 6.1945 3.7169 11.791 6.7161 14.677 8.5145 15.385 9.5882l0.7179 1.0883 0.12573 11.583 0.12572 11.582 7.5215 4.3076c4.1368 2.3693 8.8966 5.1153 10.577 6.1022l3.0556 1.7946 0.12587 11.296 0.12586 11.296h3.2739v-9.5985l0.70153-0.99486c0.59714-0.84681 7.6871-5.2835 8.4434-5.2835 0.14126 0 0.25692 3.5722 0.25692 7.9384v7.9384h2.5323l6.1378 3.5961c3.3758 1.9778 8.5705 5.0108 11.544 6.7402 2.9734 1.7293 6.5906 3.8648 8.0383 4.7454l2.6322 1.6012 0.78111 4.1499c0.4295 2.2826 0.95825 5.3583 1.1748 6.8352l0.39387 2.685h-3.1482v15.877c0 8.7324-0.15863 15.862-0.35256 15.844-0.19394-0.0183-1.9391-0.97237-3.8782-2.1202zm-211.32-48.638c0.52874-2.8138 4.3395-12.873 6.8222-18.008 4.746-9.8165 11.306-19.538 18.105-26.83 1.7452-1.8717 3.2364-3.3404 3.3136-3.2636 0.0776 0.0773 0.28161 7.4921 0.45388 16.478l0.31324 16.339-10.034 5.7885c-5.5187 3.1837-12.119 7.0147-14.668 8.5138l-4.6341 2.7254zm216.02-0.52641c-13.035-7.552-24.304-14.229-24.778-14.682l-0.56837-0.54282 0.2926-16.323 0.29259-16.323 3.227 3.4221c9.3791 9.946 17.557 23.488 22.632 37.474 2.2735 6.2663 2.9539 8.8072 2.3481 8.7696-0.21449-0.0139-1.7649-0.82094-3.4455-1.7947z" stroke-width=".46853"/>
 </g>
 <g id="unit-medical" class="unit" display="none">
  <path d="m335.28 416.42-0.88203-1.4328 16.79-12.856v-50.678h51.032l4.9885-5.4836 4.9885-5.4836-0.0265 1.6553-0.0265 1.6553-7.6452 13.553-18.567 3.5192-0.51899 8.1188-0.519 8.1189-18.45 9.0851v12.309l-26.036 16.758-4.2423 2.5943zm-68.826-8.796-12.71-8.4767-0.84732-6.4068-0.84734-6.4068-16.814-9.1036-1.2185-3.1048-1.2185-3.1047-0.11915-5.4712-0.11916-5.4712-16.513-2.1992-1.684-1.0858-1.684-1.0858-7.3029-14.462h3.0684l2.776 4.2536 2.776 4.2537 29.579 0.0212 22.878 2.1694-0.0317 24-0.0317 24 8.9307 8.0278 8.9307 8.0278-5.084 0.0958-12.71-8.4767zm24.573-18.348-16.947-11.449-0.96596-34.88h-55.38l-13.936-22.97 88.468-0.90816 15.337-13.554h2.9879l7.3541 6.8058 7.354 6.8058h88.592v2.3205l-12.71 21.441-56.772 0.0636v35.212l-33.865 22.638-2.5702-0.0746-16.947-11.449zm-88.971-84.692v-0.93091l13.589-24.86 27.93-2.1829 29.657-0.0212v-21.59l1.1097-18.209 1.1097-18.209 11.493-6.739 11.493-6.739 5.841-2.2504-1.1934 42.398-1.1934 42.398-17.528 17.865h-82.308zm122.35-8.0861-8.8696-9.0171 0.45385-41.916 0.45387-41.916 27.934 15.941 0.016 28.243 0.016 28.243 33.046 2.1971 25.42 0.0746 7.0886 13.583 7.0886 13.583h-83.775zm-88.161-31.991 0.54977-5.7817 8.8404-5.1044 8.8405-5.1044 0.0567-8.8981 0.0567-8.898 13.886-7.1124 0.59659 0.59896 0.59657 0.59897-1.0183 21.639-1.0184 21.639-13.89 0.0321-18.046 2.1758 0.54977-5.7817zm118.1 4.1425-2.7712-0.74052-1.0418-5.2299-1.0418-5.2299v-33.673l13.557 6.9442 4e-3 8.898 4e-3 8.8981 9.3167 4.8876 9.3166 4.8876v11.493l-24.573-0.39454z" stroke-width="1.6981"/>
 </g>
 <g id="unit-weapons" class="unit" display="none">
  <path d="m253.05 405.76c-0.31754-0.59098-0.57024-4.5714-0.57024-8.9824v-7.9211l-2.7602-0.3647c-6.7746-0.89514-14.689-4.7161-16.084-7.7649-0.61123-1.3362-0.63224-1.3392-9.2001-1.344l-8.5875-4e-3 -2.0657-3.1939c-1.1361-1.7567-2.0657-3.4828-2.0657-3.8359 0-0.46967 3.0868-0.64194 11.501-0.64194h11.501l3.2341-1.9403c3.6362-2.1815 9.2931-4.0951 12.106-4.0951h1.87v-13.63l-10.177-0.18074c-12.19-0.21651-11.956-0.0957-13.492-6.9587l-1.0003-4.4698 48.08-0.031 3.2974-2.1819c5.8184-3.85 10.629-5.5099 21.636-7.4662 0.95735-0.17016 1.188-0.50538 0.99327-1.4438-0.13945-0.6722-0.39828-6.2837-0.57518-12.47-0.17691-6.1863-0.46998-12.914-0.65131-14.951l-0.32965-3.7035h19.986l-0.37065 16.46-0.37061 16.46h1.77c5.1583 0 15.48 3.7152 21.187 7.6261l2.4826 1.7013h23.762c22.376 0 23.745 0.056 23.466 0.96019-0.1629 0.52808-0.66558 2.565-1.117 4.5265-1.3429 5.8345-1.7739 6.0354-12.95 6.0354-10.87 0-9.9294-0.75814-9.9414 8.0165l-8e-3 5.5475 2.6636 0.31422c3.5479 0.41853 8.3242 2.1324 11.688 4.1939l2.7415 1.6802h11.56c6.3578 0 11.56 0.16798 11.56 0.37326 0 0.20527-1.0207 1.9336-2.2681 3.8407l-2.2681 3.4674h-17.872l-0.61261 1.3392c-1.3946 3.0488-9.3092 6.8697-16.084 7.7649l-2.7602 0.3647v7.575c0 4.1662-0.24173 8.2083-0.53722 8.9824-0.50988 1.3358-0.74464 1.4074-4.6148 1.4074-2.7038 0-4.2807-0.24382-4.6806-0.7237-0.36034-0.43245-0.66459-4.0078-0.75602-8.8843l-0.153-8.1605-3.5806-0.66534c-6.9388-1.2894-13.853-4.7038-15.416-7.613l-0.74509-1.3867h-18.543v5.4476c0 7.1886 0.0177 7.1719-7.6411 7.1719-3.8621 0-6.1389-0.22816-6.5709-0.65842-0.42854-0.42685-0.66101-2.6458-0.66101-6.3097v-5.6513h-18.732l-1.9858 2.1894c-3.0657 3.38-11.94 7.138-16.856 7.138h-1.5368v7.9918c0 4.4597-0.25202 8.4609-0.57023 9.0531-0.48522 0.90306-1.1804 1.0613-4.6629 1.0613-3.4825 0-4.1776-0.1582-4.6628-1.0613zm9.6205-20.355c3.2425-0.36445 5.9451-1.0348 7.812-1.9378 3.3633-1.6268 6.6344-4.9988 5.7264-5.9031-0.32638-0.32509-0.59339-1.2394-0.59339-2.0317 0-1.6596-1.5383-3.2357-4.6822-4.7971-3.7517-1.8633-7.9037-2.4859-14.665-2.1993-6.8547 0.29055-10.387 1.3011-13.914 3.9806-1.8912 1.4368-1.993 1.6787-1.993 4.7354v3.2213l3.0472 2.0152c5.1119 3.3807 9.3812 4.0271 19.262 2.9165zm109.62-1.2741c4.9147-2.1275 8.2342-5.266 6.9367-6.5584-0.33104-0.32972-0.60189-1.1243-0.60189-1.7658 0-1.5943-1.8596-3.2031-5.7856-5.0052-2.9282-1.3441-4.0976-1.542-10.293-1.7416-5.9416-0.1914-7.5563-0.0535-10.774 0.91991-2.0816 0.62975-4.6379 1.7163-5.6805 2.4144-1.7357 1.1622-1.9096 1.529-2.0591 4.3445-0.15782 2.9704-0.0922 3.1335 1.928 4.7938 4.0282 3.3105 6.5941 3.9126 15.863 3.7221 6.3491-0.13051 8.7731-0.39075 10.466-1.1237zm-78.978-12.425h8.7448v-5.8386l-4.2438-0.65716c-5.6931-0.8816-11.247-2.5766-15.587-4.7569-3.9524-1.9857-8.5616-5.7468-9.0953-7.4217-0.30333-0.95196-0.85364-1.0778-4.7131-1.0778h-4.3697l-0.0826 6.0354c-0.0455 3.3195-0.10737 6.3406-0.13769 6.7137-0.0334 0.41106 1.0633 0.83861 2.7836 1.0852 3.7747 0.54108 8.0805 2.1891 11.771 4.5049 2.1686 1.361 3.4637 1.8264 4.6017 1.6536 0.87103-0.1323 5.5188-0.24056 10.328-0.24056zm45.818-0.56134c2.6015-2.0382 8.6928-4.5146 12.62-5.1305l3.8849-0.6093-0.34844-4.8894c-0.19164-2.6892-0.34845-5.7157-0.34845-6.7255v-1.8361h-4.0943c-3.5857 0-4.1369 0.13387-4.4377 1.0778-0.52501 1.6476-4.8176 5.1504-8.9577 7.3095-4.2558 2.2194-8.3291 3.5086-15.011 4.7507l-4.6822 0.87042-0.17247 2.386c-0.29368 4.0632-0.70571 3.9065 10.272 3.9065 9.0618 0 9.9728-0.0897 11.275-1.11zm-15.866-11.765c3.7676-1.0128 8.3158-3.5683 11.066-6.218 1.7511-1.6868 1.8786-2.047 1.8786-5.3075 0-2.911-0.22629-3.7658-1.3488-5.0945-1.8777-2.2227-7.156-4.8975-12.2-6.1824-5.3214-1.3556-17.786-1.4975-24.198-0.2755-5.7949 1.1044-11.439 3.7789-13.85 6.5632-1.8086 2.0885-1.9174 2.4294-1.7122 5.3646 0.25606 3.663 0.96635 4.6365 5.5574 7.6161 3.4968 2.2695 7.2413 3.6809 11.609 4.3757 4.506 0.71689 19.412 0.17609 23.198-0.84161zm18.729-24.479c-4.0203-2.6181-10.866-5.3315-15.699-6.2224l-3.5806-0.66005 0.2177-16.838 0.21765-16.838h-6.7701v-59.555l9.089-9.0013 3.856 0.57225c13.934 2.0679 29.835 10.54 30.798 16.409 0.17324 1.0562 2.0659 17.575 4.2059 36.708 4.2641 38.124 4.2791 38.579 1.4709 44.646-2.8018 6.0529-9.1069 11.034-15.707 12.41-4.0757 0.84934-4.3862 0.78683-8.0979-1.6304zm-75.073 0.65241c-7.848-2.7001-13.662-9.6039-14.972-17.78-0.61547-3.839 7.2325-74.146 8.596-77.008 1.226-2.5733 3.9489-4.6828 10.138-7.8542 6.4185-3.289 11.978-5.1925 18.445-6.3159l4.9018-0.85141 8.5785 8.4945v60.051l-3.1674 0.16455c-2.3792 0.12359-3.1654 0.36935-3.1595 0.98755 0.0629 6.5454 0.95909 30.697 1.1658 31.412 0.20318 0.70255-0.0403 0.96016-0.90707 0.96016-4.0364 0-13.686 3.5014-19.144 6.9466-3.3999 2.146-5.9786 2.3416-10.475 0.79458zm-36.982-7.2662c0.88505-3.36 1.6092-6.1953 1.6092-6.3006 0-0.10534-6.4109-0.25733-14.246-0.33779l-14.246-0.14627 11.105-31.93 14.195-8.6876c7.8074-4.7782 14.831-9.3481 15.607-10.155 0.91073-0.94685 1.842-3.0668 2.6238-5.9728l1.212-4.505 3.4301-2.163 3.4301-2.163-0.26342 1.5141c-0.14489 0.83277-1.6395 14.106-3.3213 29.496-2.696 24.671-2.9871 28.404-2.4597 31.549 0.76654 4.5706 3.2149 9.5843 6.4078 13.122l2.5184 2.79h-29.21zm134.75 3.5029c3.158-3.4073 5.4968-8.2512 6.3092-13.067 0.60036-3.5588 0.39381-6.2509-2.5153-32.786-1.7432-15.9-3.0872-29.144-2.9868-29.43 0.10041-0.28676 1.7087 0.44658 3.5739 1.6297l3.3913 2.1511 1.0039 4.2415c0.56299 2.3786 1.5465 4.8838 2.2392 5.7038 0.6794 0.80424 7.5014 5.2374 15.16 9.8515 7.6586 4.6141 14.321 8.7842 14.805 9.2669 0.48403 0.48266 3.183 7.6674 5.9977 15.966 2.8147 8.2987 5.2339 15.397 5.376 15.774 0.20253 0.53778-2.8548 0.68585-14.16 0.68585-13.469 0-14.4 0.0633-14.143 0.96017 0.15137 0.5281 0.80459 2.9354 1.4516 5.3496 0.64699 2.4142 1.3002 4.8214 1.4516 5.3496 0.25726 0.89745-0.69298 0.96017-14.547 0.96017h-14.822zm-95-104.16c0.16978-0.88052 0.87841-7.0778 1.5747-13.772l1.266-12.171-2.5891-2.757c-1.424-1.5163-2.5891-3.1365-2.5891-3.6004 0-1.8101 4.4822-31.4 5.0026-33.025 0.99482-3.1065 3.8154-6.6768 6.8701-8.6964 2.761-1.8254 3.0004-2.1506 3.0004-4.0771 0-3.6169 1.5658-11.232 3.3508-16.295 2.2163-6.2869 5.706-13.012 10.028-19.325 3.7899-5.5359 12.89-15.998 13.915-15.998 1.0472 0 9.0726 8.6612 12.71 13.717 8.7374 12.144 13.689 24.312 14.786 36.333 0.37014 4.0571 0.46501 4.2838 2.253 5.3845 2.6616 1.6385 6.1074 5.7209 7.0854 8.3945 0.62839 1.7179 5.2793 31.695 5.2793 34.028 0 0.22165-1.1561 1.634-2.569 3.1387l-2.5691 2.7357 1.4471 13.264c0.79588 7.2952 1.3791 13.332 1.2961 13.414-0.0829 0.0827-2.4908-0.68198-5.3505-1.6993-2.8598-1.0173-7.6784-2.3801-10.708-3.0283l-5.5085-1.1786-17.668-17.54-17.586 17.545-5.2331 1.0793c-4.3851 0.90437-12.585 3.4882-16.751 5.2784-0.92937 0.39936-1.0155 0.26604-0.74265-1.1492z" stroke-width=".54976"/>
 </g>
 <g id="unit-infantry" class="unit">
  <path d="m297.73 448.03c-6.5602-3.6676-12.358-6.822-12.883-7.01-1.8324-0.65533 5.1226-11.472 10.046-15.623l4.9606-4.1828v-39.855l-3.1089-4.2274c-3.0169-4.1023-3.3211-4.2426-10.278-4.7404-6.6796-0.47793-8.7955-1.3491-30.977-12.755-17.556-9.0268-25.106-13.497-28.752-17.022-2.7191-2.6293-4.9398-5.0323-4.9349-5.3401 0.0216-1.3574 14.618-9.4063 17.058-9.4063 2.4656 0 2.7081 0.37282 2.7081 4.1632v4.1632h42.293l1.8416-5.8422c1.0129-3.2132 1.4497-6.1968 0.97068-6.6301-0.47901-0.43335-4.3836-1.8203-8.6769-3.082-24.227-7.1202-24.979-7.406-24.979-9.4942 0-2.4708 12.304-43.888 13.324-44.851 0.39993-0.37736 3.2559-1.4267 6.3465-2.3318l5.6193-1.6457-0.67554 9.5171c-0.37155 5.2344-0.67554 12.489-0.67554 16.122 0 5.9114-0.21867 6.6053-2.0816 6.6053-1.7237 0-2.0816 0.69387-2.0816 4.0358 0 2.2197 0.58545 4.5119 1.301 5.0938 2.2244 1.8091 30.114 7.7484 31.215 6.6475 2.5944-2.5944-0.59068-5.5012-11.777-10.748l-11.371-5.3338 0.0104-4.2708c6e-3 -2.349 1.641-44.081 3.634-92.739s3.6276-89.304 3.6324-90.326c7e-3 -1.5395 0.36832-1.6656 2.1059-0.73571 3.3356 1.7852 4.131-1.8659 0.96496-4.4296l-2.4891-2.0156 3.512-2.8664c2.7428-2.2386 4.8207-6.0359 9.4869-17.337 3.2862-7.959 6.3097-14.471 6.7189-14.471 0.40923 0 3.4632 6.535 6.7865 14.522 4.614 11.089 6.8641 15.212 9.518 17.441 3.1324 2.6311 3.2957 3.0264 1.6542 4.0038-1.0018 0.59646-1.8214 2.2486-1.8214 3.6714 0 2.2644 0.25952 2.448 2.0816 1.4729 1.1449-0.61272 2.0822-0.98048 2.083-0.81723 7.8e-4 0.16326 1.6394 40.81 3.6414 90.326 2.002 49.516 3.6406 91.951 3.6414 94.3l7.7e-4 4.2708-11.449 5.3701c-10.817 5.074-11.449 5.5416-11.449 8.479 0 1.7099 0.268 3.1088 0.59558 3.1088 0.77416 0 22.698-5.0049 27.766-6.3387 3.7537-0.98782 3.903-1.2001 3.903-5.5492 0-3.6468-0.40293-4.6275-2.0816-5.0664-1.8464-0.48284-2.0816-1.4197-2.0816-8.2908 0-4.2605-0.30052-11.301-0.66781-15.646l-0.66779-7.9 12.264 3.6366 6.5049 21.276c3.5777 11.702 6.3879 22.394 6.2448 23.759-0.23752 2.2674-1.6608 2.8865-16.393 7.1307-8.8728 2.5562-16.524 5.0157-17.003 5.4654-0.479 0.44974-0.0421 3.4467 0.97069 6.6599l1.8416 5.8422h42.293v-4.1632c0-3.8544 0.21232-4.1612 2.8622-4.1361 1.5742 0.0149 6.0146 2.0304 9.8674 4.4789l7.0052 4.4518-5.444 5.3391c-4.3412 4.2576-10.207 7.7777-28.956 17.378-22.862 11.706-23.698 12.039-30.267 12.039h-6.7553l-6.5977 9.1871v40.814l4.4712 3.1516c2.8266 1.9924 5.7371 5.4543 7.913 9.4122 1.893 3.4434 3.2766 6.3853 3.0746 6.5377-0.27493 0.20746-21.328 11.817-24.868 13.713-0.30907 0.16554-5.9294-2.6997-12.49-6.3673zm5.9308-166.45 5.7845-3.8406 5.8721 3.6383c5.6151 3.4791 5.886 3.8472 6.1892 8.409l0.31711 4.7707 3.0655-1.5852c2.6006-1.3448 3.0655-2.2025 3.0655-5.6552 0-3.7938-0.42369-4.3672-6.2448-8.4505l-6.2448-4.3805v-163.89l3.1224-1.2933c2.4527-1.0159 3.1224-1.9398 3.1224-4.307v-3.0137l-5.1694 2.6195c-6.4033 3.2448-7.1963 3.2448-13.6 0l-5.1694-2.6195v2.9472c0 2.3444 0.74632 3.3031 3.6492 4.6873l3.6492 1.7402-0.26655 81.42-0.26655 81.419-6.505 4.5376c-6.0889 4.2473-6.505 4.7968-6.505 8.5903 0 3.3621 0.48773 4.3094 2.8622 5.5592l2.8622 1.5064 0.31262-4.483c0.29035-4.1635 0.72485-4.7567 6.0971-8.3237z" stroke-width="1.0408"/>
 </g>
</svg>
